<?xml version="1.0" encoding="UTF-8" standalone="no"?>
<!-- Created with Inkscape (http://www.inkscape.org/) -->

<svg
   width="299.13513mm"
   height="61.675903mm"
   viewBox="0 0 299.13513 61.675903"
   version="1.1"
   id="svg1"
   inkscape:version="1.4.2 (ebf0e940d0, 2025-05-08)"
   sodipodi:docname="particle_filter.svg"
   inkscape:export-filename="pf-rejuv.png"
   inkscape:export-xdpi="200"
   inkscape:export-ydpi="200"
   xmlns:inkscape="http://www.inkscape.org/namespaces/inkscape"
   xmlns:sodipodi="http://sodipodi.sourceforge.net/DTD/sodipodi-0.dtd"
   xmlns="http://www.w3.org/2000/svg"
   xmlns:svg="http://www.w3.org/2000/svg">
  <sodipodi:namedview
     id="namedview1"
     pagecolor="#000000"
     bordercolor="#000000"
     borderopacity="0.25"
     inkscape:showpageshadow="2"
     inkscape:pageopacity="0.0"
     inkscape:pagecheckerboard="0"
     inkscape:deskcolor="#d1d1d1"
     inkscape:document-units="mm"
     inkscape:zoom="1.1426897"
     inkscape:cx="492.25962"
     inkscape:cy="468.63116"
     inkscape:window-width="3840"
     inkscape:window-height="2040"
     inkscape:window-x="0"
     inkscape:window-y="76"
     inkscape:window-maximized="1"
     inkscape:current-layer="g4" />
  <defs
     id="defs1">
    <marker
       style="overflow:visible"
       id="Stop_F-b5b5b5_S-be2c48"
       refX="0"
       refY="0"
       orient="auto"
       inkscape:stockid="Stop"
       markerWidth="1"
       markerHeight="1"
       viewBox="0 0 1 1"
       inkscape:isstock="true"
       inkscape:collect="always"
       preserveAspectRatio="xMidYMid">
      <path
         style="fill:none;stroke:#be2c48;stroke-width:1"
         d="M 0,4 V -4"
         id="path2" />
    </marker>
    <marker
       style="overflow:visible"
       id="marker6_reversed"
       refX="0"
       refY="0"
       orient="auto"
       inkscape:stockid="Wide, rounded arrow"
       markerWidth="1"
       markerHeight="1"
       viewBox="0 0 1 1"
       inkscape:isstock="true"
       inkscape:collect="always"
       preserveAspectRatio="xMidYMid">
      <g
         transform="scale(-1)"
         id="g1">
        <path
           style="fill:none;stroke:context-stroke;stroke-width:1;stroke-linecap:round"
           d="M 3,-3 0,0 3,3"
           transform="rotate(180,0.125,0)"
           sodipodi:nodetypes="ccc"
           id="path1" />
      </g>
    </marker>
    <g
       id="g3827">
      <g
         id="g7147">
        <path
           d="m 5.65625,-4.953125 c 0.421875,0.078125 1.078125,0.21875 1.234375,0.25 0.328125,0.09375 1.4375,0.484375 1.4375,1.6875 C 8.328125,-2.25 7.625,-0.25 4.765625,-0.25 4.234375,-0.25 2.375,-0.328125 1.890625,-1.6875 2.875,-1.5625 3.375,-2.328125 3.375,-2.875 c 0,-0.515625 -0.359375,-0.796875 -0.84375,-0.796875 -0.546875,0 -1.265625,0.421875 -1.265625,1.546875 0,1.453125 1.484375,2.375 3.46875,2.375 3.765625,0 4.875,-2.78125 4.875,-4.0625 0,-0.375 0,-1.0625 -0.78125,-1.859375 -0.625,-0.59375 -1.21875,-0.71875 -2.5625,-1 C 5.59375,-6.8125 4.53125,-7.03125 4.53125,-8.15625 c 0,-0.5 0.453125,-2.28125 2.796875,-2.28125 1.046875,0 2.0625,0.40625 2.3125,1.296875 -1.09375,0 -1.140625,0.9375 -1.140625,0.96875 0,0.515625 0.46875,0.65625 0.6875,0.65625 0.359375,0 1.046875,-0.265625 1.046875,-1.3125 0,-1.03125 -0.9375,-2.09375 -2.875,-2.09375 -3.25,0 -4.109375,2.546875 -4.109375,3.5625 0,1.875 1.828125,2.28125 2.40625,2.40625 z m 0,0"
           id="path6559" />
      </g>
      <g
         id="g444">
        <path
           d="m 4.984375,-9.96875 h 2.28125 c 0.46875,0 0.71875,0 0.71875,-0.4375 0,-0.28125 -0.15625,-0.28125 -0.65625,-0.28125 H 5.15625 l 0.921875,-3.609375 c 0.09375,-0.34375 0.09375,-0.390625 0.09375,-0.578125 0,-0.390625 -0.328125,-0.609375 -0.640625,-0.609375 -0.203125,0 -0.765625,0.07813 -0.96875,0.859375 l -0.96875,3.9375 H 1.265625 c -0.5,0 -0.71875,0 -0.71875,0.484375 0,0.234375 0.171875,0.234375 0.640625,0.234375 h 2.203125 l -1.625,6.546875 c -0.203125,0.875 -0.28125,1.125 -0.28125,1.4375 0,1.171875 0.8125,2.234375 2.203125,2.234375 2.5,0 3.84375,-3.625 3.84375,-3.796875 0,-0.140625 -0.09375,-0.21875 -0.25,-0.21875 -0.046875,0 -0.140625,0 -0.1875,0.09375 C 7.0625,-3.640625 7.03125,-3.625 6.859375,-3.21875 6.34375,-1.984375 5.203125,-0.25 3.765625,-0.25 c -0.75,0 -0.796875,-0.625 -0.796875,-1.15625 0,-0.03125 0,-0.5 0.078125,-0.796875 z m 0,0"
           id="path7225" />
      </g>
    </g>
    <g
       id="g71">
      <g
         id="g849">
        <path
           d="m 5.65625,-4.953125 c 0.421875,0.078125 1.078125,0.21875 1.234375,0.25 0.328125,0.09375 1.4375,0.484375 1.4375,1.6875 C 8.328125,-2.25 7.625,-0.25 4.765625,-0.25 4.234375,-0.25 2.375,-0.328125 1.890625,-1.6875 2.875,-1.5625 3.375,-2.328125 3.375,-2.875 c 0,-0.515625 -0.359375,-0.796875 -0.84375,-0.796875 -0.546875,0 -1.265625,0.421875 -1.265625,1.546875 0,1.453125 1.484375,2.375 3.46875,2.375 3.765625,0 4.875,-2.78125 4.875,-4.0625 0,-0.375 0,-1.0625 -0.78125,-1.859375 -0.625,-0.59375 -1.21875,-0.71875 -2.5625,-1 C 5.59375,-6.8125 4.53125,-7.03125 4.53125,-8.15625 c 0,-0.5 0.453125,-2.28125 2.796875,-2.28125 1.046875,0 2.0625,0.40625 2.3125,1.296875 -1.09375,0 -1.140625,0.9375 -1.140625,0.96875 0,0.515625 0.46875,0.65625 0.6875,0.65625 0.359375,0 1.046875,-0.265625 1.046875,-1.3125 0,-1.03125 -0.9375,-2.09375 -2.875,-2.09375 -3.25,0 -4.109375,2.546875 -4.109375,3.5625 0,1.875 1.828125,2.28125 2.40625,2.40625 z m 0,0"
           id="path7520" />
      </g>
      <g
         id="g7706">
        <path
           d="m 4.984375,-9.96875 h 2.28125 c 0.46875,0 0.71875,0 0.71875,-0.4375 0,-0.28125 -0.15625,-0.28125 -0.65625,-0.28125 H 5.15625 l 0.921875,-3.609375 c 0.09375,-0.34375 0.09375,-0.390625 0.09375,-0.578125 0,-0.390625 -0.328125,-0.609375 -0.640625,-0.609375 -0.203125,0 -0.765625,0.07813 -0.96875,0.859375 l -0.96875,3.9375 H 1.265625 c -0.5,0 -0.71875,0 -0.71875,0.484375 0,0.234375 0.171875,0.234375 0.640625,0.234375 h 2.203125 l -1.625,6.546875 c -0.203125,0.875 -0.28125,1.125 -0.28125,1.4375 0,1.171875 0.8125,2.234375 2.203125,2.234375 2.5,0 3.84375,-3.625 3.84375,-3.796875 0,-0.140625 -0.09375,-0.21875 -0.25,-0.21875 -0.046875,0 -0.140625,0 -0.1875,0.09375 C 7.0625,-3.640625 7.03125,-3.625 6.859375,-3.21875 6.34375,-1.984375 5.203125,-0.25 3.765625,-0.25 c -0.75,0 -0.796875,-0.625 -0.796875,-1.15625 0,-0.03125 0,-0.5 0.078125,-0.796875 z m 0,0"
           id="path1711" />
      </g>
      <g
         id="g8959">
        <path
           d="m 7.578125,6.046875 c 0,-0.03125 0,-0.078125 -0.0625,-0.15625 -1.140625,-1.15625 -4.1875,-4.328125 -4.1875,-12.0625 0,-7.734375 2.984375,-10.875 4.203125,-12.109375 0,-0.03125 0.046875,-0.07813 0.046875,-0.15625 0,-0.07813 -0.0625,-0.125 -0.171875,-0.125 -0.265625,0 -2.375,1.828125 -3.59375,4.5625 -1.234375,2.75 -1.578125,5.421875 -1.578125,7.8125 0,1.78125 0.171875,4.796875 1.65625,8 1.1875,2.578125 3.21875,4.375 3.515625,4.375 0.125,0 0.171875,-0.046875 0.171875,-0.140625 z m 0,0"
           id="path964" />
      </g>
      <g
         id="g3016">
        <path
           d="m 6.515625,-6.171875 c 0,-1.78125 -0.171875,-4.8125 -1.65625,-8 C 3.671875,-16.75 1.640625,-18.5625 1.34375,-18.5625 c -0.078125,0 -0.171875,0.03125 -0.171875,0.15625 0,0.04687 0.015625,0.0625 0.046875,0.125 1.1875,1.234375 4.203125,4.375 4.203125,12.09375 0,7.71875 -3,10.875 -4.203125,12.109375 C 1.1875,5.96875 1.171875,6 1.171875,6.046875 c 0,0.125 0.09375,0.140625 0.171875,0.140625 0.265625,0 2.375,-1.828125 3.59375,-4.546875 1.234375,-2.75 1.578125,-5.4375 1.578125,-7.8125 z m 0,0"
           id="path9854" />
      </g>
    </g>
    <g
       id="g6387">
      <g
         id="g4455">
        <path
           d="m 5.65625,-4.953125 c 0.421875,0.078125 1.078125,0.21875 1.234375,0.25 0.328125,0.09375 1.4375,0.484375 1.4375,1.6875 C 8.328125,-2.25 7.625,-0.25 4.765625,-0.25 4.234375,-0.25 2.375,-0.328125 1.890625,-1.6875 2.875,-1.5625 3.375,-2.328125 3.375,-2.875 c 0,-0.515625 -0.359375,-0.796875 -0.84375,-0.796875 -0.546875,0 -1.265625,0.421875 -1.265625,1.546875 0,1.453125 1.484375,2.375 3.46875,2.375 3.765625,0 4.875,-2.78125 4.875,-4.0625 0,-0.375 0,-1.0625 -0.78125,-1.859375 -0.625,-0.59375 -1.21875,-0.71875 -2.5625,-1 C 5.59375,-6.8125 4.53125,-7.03125 4.53125,-8.15625 c 0,-0.5 0.453125,-2.28125 2.796875,-2.28125 1.046875,0 2.0625,0.40625 2.3125,1.296875 -1.09375,0 -1.140625,0.9375 -1.140625,0.96875 0,0.515625 0.46875,0.65625 0.6875,0.65625 0.359375,0 1.046875,-0.265625 1.046875,-1.3125 0,-1.03125 -0.9375,-2.09375 -2.875,-2.09375 -3.25,0 -4.109375,2.546875 -4.109375,3.5625 0,1.875 1.828125,2.28125 2.40625,2.40625 z m 0,0"
           id="path4915" />
      </g>
      <g
         id="g4607">
        <path
           d="m 4.984375,-9.96875 h 2.28125 c 0.46875,0 0.71875,0 0.71875,-0.4375 0,-0.28125 -0.15625,-0.28125 -0.65625,-0.28125 H 5.15625 l 0.921875,-3.609375 c 0.09375,-0.34375 0.09375,-0.390625 0.09375,-0.578125 0,-0.390625 -0.328125,-0.609375 -0.640625,-0.609375 -0.203125,0 -0.765625,0.07813 -0.96875,0.859375 l -0.96875,3.9375 H 1.265625 c -0.5,0 -0.71875,0 -0.71875,0.484375 0,0.234375 0.171875,0.234375 0.640625,0.234375 h 2.203125 l -1.625,6.546875 c -0.203125,0.875 -0.28125,1.125 -0.28125,1.4375 0,1.171875 0.8125,2.234375 2.203125,2.234375 2.5,0 3.84375,-3.625 3.84375,-3.796875 0,-0.140625 -0.09375,-0.21875 -0.25,-0.21875 -0.046875,0 -0.140625,0 -0.1875,0.09375 C 7.0625,-3.640625 7.03125,-3.625 6.859375,-3.21875 6.34375,-1.984375 5.203125,-0.25 3.765625,-0.25 c -0.75,0 -0.796875,-0.625 -0.796875,-1.15625 0,-0.03125 0,-0.5 0.078125,-0.796875 z m 0,0"
           id="path6618" />
      </g>
      <g
         id="g8348">
        <path
           d="m 7.578125,6.046875 c 0,-0.03125 0,-0.078125 -0.0625,-0.15625 -1.140625,-1.15625 -4.1875,-4.328125 -4.1875,-12.0625 0,-7.734375 2.984375,-10.875 4.203125,-12.109375 0,-0.03125 0.046875,-0.07813 0.046875,-0.15625 0,-0.07813 -0.0625,-0.125 -0.171875,-0.125 -0.265625,0 -2.375,1.828125 -3.59375,4.5625 -1.234375,2.75 -1.578125,5.421875 -1.578125,7.8125 0,1.78125 0.171875,4.796875 1.65625,8 1.1875,2.578125 3.21875,4.375 3.515625,4.375 0.125,0 0.171875,-0.046875 0.171875,-0.140625 z m 0,0"
           id="path5662" />
      </g>
      <g
         id="g2608">
        <path
           d="m 9.34375,-5.75 h 6.5625 c 0.34375,0 0.765625,0 0.765625,-0.421875 0,-0.4375 -0.390625,-0.4375 -0.765625,-0.4375 H 9.34375 V -13.1875 c 0,-0.34375 0,-0.765625 -0.421875,-0.765625 -0.453125,0 -0.453125,0.390625 -0.453125,0.765625 v 6.578125 h -6.5625 c -0.34375,0 -0.765625,0 -0.765625,0.421875 0,0.4375 0.390625,0.4375 0.765625,0.4375 h 6.5625 v 6.5625 c 0,0.359375 0,0.78125 0.421875,0.78125 0.453125,0 0.453125,-0.40625 0.453125,-0.78125 z m 0,0"
           id="path1181" />
      </g>
      <g
         id="g10">
        <path
           d="m 6.59375,-15.828125 c 0,-0.53125 -0.03125,-0.546875 -0.375,-0.546875 -0.96875,1.15625 -2.421875,1.53125 -3.8125,1.578125 -0.078125,0 -0.203125,0 -0.21875,0.04687 -0.03125,0.0625 -0.03125,0.109375 -0.03125,0.625 0.765625,0 2.0625,-0.15625 3.046875,-0.75 v 13.0625 c 0,0.875 -0.046875,1.171875 -2.1875,1.171875 H 2.28125 V 0 c 1.1875,-0.03125 2.421875,-0.046875 3.609375,-0.046875 1.203125,0 2.4375,0.015625 3.625,0.046875 v -0.640625 h -0.75 c -2.125,0 -2.171875,-0.28125 -2.171875,-1.171875 z m 0,0"
           id="path2214" />
      </g>
      <g
         id="g9904">
        <path
           d="m 6.515625,-6.171875 c 0,-1.78125 -0.171875,-4.8125 -1.65625,-8 C 3.671875,-16.75 1.640625,-18.5625 1.34375,-18.5625 c -0.078125,0 -0.171875,0.03125 -0.171875,0.15625 0,0.04687 0.015625,0.0625 0.046875,0.125 1.1875,1.234375 4.203125,4.375 4.203125,12.09375 0,7.71875 -3,10.875 -4.203125,12.109375 C 1.1875,5.96875 1.171875,6 1.171875,6.046875 c 0,0.125 0.09375,0.140625 0.171875,0.140625 0.265625,0 2.375,-1.828125 3.59375,-4.546875 1.234375,-2.75 1.578125,-5.4375 1.578125,-7.8125 z m 0,0"
           id="path1106" />
      </g>
    </g>
    <g
       id="g9228">
      <g
         id="g3781">
        <path
           d="m 5.65625,-4.953125 c 0.421875,0.078125 1.078125,0.21875 1.234375,0.25 0.328125,0.09375 1.4375,0.484375 1.4375,1.6875 C 8.328125,-2.25 7.625,-0.25 4.765625,-0.25 4.234375,-0.25 2.375,-0.328125 1.890625,-1.6875 2.875,-1.5625 3.375,-2.328125 3.375,-2.875 c 0,-0.515625 -0.359375,-0.796875 -0.84375,-0.796875 -0.546875,0 -1.265625,0.421875 -1.265625,1.546875 0,1.453125 1.484375,2.375 3.46875,2.375 3.765625,0 4.875,-2.78125 4.875,-4.0625 0,-0.375 0,-1.0625 -0.78125,-1.859375 -0.625,-0.59375 -1.21875,-0.71875 -2.5625,-1 C 5.59375,-6.8125 4.53125,-7.03125 4.53125,-8.15625 c 0,-0.5 0.453125,-2.28125 2.796875,-2.28125 1.046875,0 2.0625,0.40625 2.3125,1.296875 -1.09375,0 -1.140625,0.9375 -1.140625,0.96875 0,0.515625 0.46875,0.65625 0.6875,0.65625 0.359375,0 1.046875,-0.265625 1.046875,-1.3125 0,-1.03125 -0.9375,-2.09375 -2.875,-2.09375 -3.25,0 -4.109375,2.546875 -4.109375,3.5625 0,1.875 1.828125,2.28125 2.40625,2.40625 z m 0,0"
           id="path1463" />
      </g>
      <g
         id="g7932">
        <path
           d="m 4.984375,-9.96875 h 2.28125 c 0.46875,0 0.71875,0 0.71875,-0.4375 0,-0.28125 -0.15625,-0.28125 -0.65625,-0.28125 H 5.15625 l 0.921875,-3.609375 c 0.09375,-0.34375 0.09375,-0.390625 0.09375,-0.578125 0,-0.390625 -0.328125,-0.609375 -0.640625,-0.609375 -0.203125,0 -0.765625,0.07813 -0.96875,0.859375 l -0.96875,3.9375 H 1.265625 c -0.5,0 -0.71875,0 -0.71875,0.484375 0,0.234375 0.171875,0.234375 0.640625,0.234375 h 2.203125 l -1.625,6.546875 c -0.203125,0.875 -0.28125,1.125 -0.28125,1.4375 0,1.171875 0.8125,2.234375 2.203125,2.234375 2.5,0 3.84375,-3.625 3.84375,-3.796875 0,-0.140625 -0.09375,-0.21875 -0.25,-0.21875 -0.046875,0 -0.140625,0 -0.1875,0.09375 C 7.0625,-3.640625 7.03125,-3.625 6.859375,-3.21875 6.34375,-1.984375 5.203125,-0.25 3.765625,-0.25 c -0.75,0 -0.796875,-0.625 -0.796875,-1.15625 0,-0.03125 0,-0.5 0.078125,-0.796875 z m 0,0"
           id="path272" />
      </g>
      <g
         id="g2987">
        <path
           d="m 6.96875,-16.578125 c 0.015625,-0.09375 0.0625,-0.25 0.0625,-0.375 0,-0.25 -0.234375,-0.25 -0.296875,-0.25 -0.015625,0 -0.90625,0.07813 -1.359375,0.125 -0.421875,0.03125 -0.796875,0.07813 -1.234375,0.109375 -0.59375,0.04687 -0.765625,0.0625 -0.765625,0.515625 0,0.25 0.25,0.25 0.484375,0.25 1.265625,0 1.265625,0.21875 1.265625,0.46875 0,0.09375 0,0.140625 -0.125,0.59375 L 1.46875,-0.96875 c -0.109375,0.375 -0.109375,0.421875 -0.109375,0.578125 0,0.546875 0.421875,0.640625 0.671875,0.640625 0.6875,0 0.84375,-0.546875 1.046875,-1.3125 l 1.15625,-4.640625 C 6.015625,-5.5 7.09375,-4.765625 7.09375,-3.5625 c 0,0.140625 0,0.234375 -0.078125,0.609375 -0.109375,0.375 -0.109375,0.671875 -0.109375,0.796875 0,1.4375 0.953125,2.40625 2.21875,2.40625 1.140625,0 1.734375,-1.046875 1.921875,-1.390625 0.53125,-0.921875 0.84375,-2.296875 0.84375,-2.40625 0,-0.125 -0.09375,-0.21875 -0.25,-0.21875 -0.21875,0 -0.234375,0.09375 -0.34375,0.5 -0.34375,1.28125 -0.859375,3.015625 -2.125,3.015625 -0.5,0 -0.828125,-0.25 -0.828125,-1.1875 0,-0.46875 0.109375,-1.015625 0.203125,-1.390625 0.109375,-0.4375 0.109375,-0.46875 0.109375,-0.765625 0,-1.46875 -1.328125,-2.28125 -3.59375,-2.578125 0.890625,-0.546875 1.78125,-1.515625 2.125,-1.875 1.40625,-1.59375 2.375,-2.390625 3.515625,-2.390625 0.578125,0 0.71875,0.15625 0.890625,0.296875 -0.90625,0.109375 -1.265625,0.75 -1.265625,1.25 0,0.59375 0.46875,0.78125 0.828125,0.78125 0.671875,0 1.265625,-0.5625 1.265625,-1.359375 0,-0.71875 -0.578125,-1.453125 -1.6875,-1.453125 -1.359375,0 -2.484375,0.953125 -4.234375,2.9375 -0.25,0.296875 -1.171875,1.25 -2.09375,1.59375 z m 0,0"
           id="path1312" />
      </g>
      <g
         id="g4168">
        <path
           d="m 7.578125,6.046875 c 0,-0.03125 0,-0.078125 -0.0625,-0.15625 -1.140625,-1.15625 -4.1875,-4.328125 -4.1875,-12.0625 0,-7.734375 2.984375,-10.875 4.203125,-12.109375 0,-0.03125 0.046875,-0.07813 0.046875,-0.15625 0,-0.07813 -0.0625,-0.125 -0.171875,-0.125 -0.265625,0 -2.375,1.828125 -3.59375,4.5625 -1.234375,2.75 -1.578125,5.421875 -1.578125,7.8125 0,1.78125 0.171875,4.796875 1.65625,8 1.1875,2.578125 3.21875,4.375 3.515625,4.375 0.125,0 0.171875,-0.046875 0.171875,-0.140625 z m 0,0"
           id="path2742" />
      </g>
      <g
         id="g3774">
        <path
           d="m 9.34375,-5.75 h 6.5625 c 0.34375,0 0.765625,0 0.765625,-0.421875 0,-0.4375 -0.390625,-0.4375 -0.765625,-0.4375 H 9.34375 V -13.1875 c 0,-0.34375 0,-0.765625 -0.421875,-0.765625 -0.453125,0 -0.453125,0.390625 -0.453125,0.765625 v 6.578125 h -6.5625 c -0.34375,0 -0.765625,0 -0.765625,0.421875 0,0.4375 0.390625,0.4375 0.765625,0.4375 h 6.5625 v 6.5625 c 0,0.359375 0,0.78125 0.421875,0.78125 0.453125,0 0.453125,-0.40625 0.453125,-0.78125 z m 0,0"
           id="path6730" />
      </g>
      <g
         id="g6316">
        <path
           d="m 6.59375,-15.828125 c 0,-0.53125 -0.03125,-0.546875 -0.375,-0.546875 -0.96875,1.15625 -2.421875,1.53125 -3.8125,1.578125 -0.078125,0 -0.203125,0 -0.21875,0.04687 -0.03125,0.0625 -0.03125,0.109375 -0.03125,0.625 0.765625,0 2.0625,-0.15625 3.046875,-0.75 v 13.0625 c 0,0.875 -0.046875,1.171875 -2.1875,1.171875 H 2.28125 V 0 c 1.1875,-0.03125 2.421875,-0.046875 3.609375,-0.046875 1.203125,0 2.4375,0.015625 3.625,0.046875 v -0.640625 h -0.75 c -2.125,0 -2.171875,-0.28125 -2.171875,-1.171875 z m 0,0"
           id="path2073" />
      </g>
      <g
         id="g4924">
        <path
           d="m 6.515625,-6.171875 c 0,-1.78125 -0.171875,-4.8125 -1.65625,-8 C 3.671875,-16.75 1.640625,-18.5625 1.34375,-18.5625 c -0.078125,0 -0.171875,0.03125 -0.171875,0.15625 0,0.04687 0.015625,0.0625 0.046875,0.125 1.1875,1.234375 4.203125,4.375 4.203125,12.09375 0,7.71875 -3,10.875 -4.203125,12.109375 C 1.1875,5.96875 1.171875,6 1.171875,6.046875 c 0,0.125 0.09375,0.140625 0.171875,0.140625 0.265625,0 2.375,-1.828125 3.59375,-4.546875 1.234375,-2.75 1.578125,-5.4375 1.578125,-7.8125 z m 0,0"
           id="path1200" />
      </g>
    </g>
  </defs>
  <g
     inkscape:label="Layer 1"
     inkscape:groupmode="layer"
     id="layer1"
     transform="translate(69.155738,-25.576505)">
    <g
       fill="#000000"
       fill-opacity="1"
       id="g6"
       transform="matrix(0.352778,0,0,0.352778,34.153934,66.3414)"
       style="fill:#ffffff" />
    <g
       inkscape:label=""
       transform="translate(-41.136272,72.12155)"
       id="g4"
       style="fill:#ffffff">
      <path
         style="fill:#e77728;fill-opacity:0.0980454;stroke:none;stroke-width:0.999944;stroke-dasharray:none;stroke-opacity:1"
         id="path55-2-2-3-9-5-3-3-4-0"
         sodipodi:type="arc"
         sodipodi:cx="73.404152"
         sodipodi:cy="-202.33475"
         sodipodi:rx="4.4886003"
         sodipodi:ry="4.4876809"
         sodipodi:start="0"
         sodipodi:end="6.2829407"
         sodipodi:open="true"
         sodipodi:arc-type="arc"
         d="m 77.892752,-202.33475 a 4.4886003,4.4876809 0 0 1 -4.488326,4.48768 4.4886003,4.4876809 0 0 1 -4.488874,-4.48713 4.4886003,4.4876809 0 0 1 4.487776,-4.48823 4.4886003,4.4876809 0 0 1 4.489424,4.48658"
         transform="matrix(0.42813184,0.90371629,-0.90345605,0.42868073,0,0)" />
      <path
         style="fill:#e77728;fill-opacity:0.462382;stroke:none;stroke-width:0.999944;stroke-dasharray:none;stroke-opacity:1"
         id="path55-2-2-3-9-6-3-9-8"
         sodipodi:type="arc"
         sodipodi:cx="74.888603"
         sodipodi:cy="-204.41167"
         sodipodi:rx="4.4886003"
         sodipodi:ry="4.4876809"
         sodipodi:start="0"
         sodipodi:end="6.2829407"
         sodipodi:open="true"
         sodipodi:arc-type="arc"
         d="m 79.377203,-204.41167 a 4.4886003,4.4876809 0 0 1 -4.488325,4.48768 4.4886003,4.4876809 0 0 1 -4.488875,-4.48713 4.4886003,4.4876809 0 0 1 4.487777,-4.48823 4.4886003,4.4876809 0 0 1 4.489423,4.48659"
         transform="matrix(0.42813184,0.90371629,-0.90345605,0.42868073,0,0)" />
      <path
         style="fill:#e77728;fill-opacity:0.661688;stroke:none;stroke-width:0.999944;stroke-dasharray:none;stroke-opacity:1"
         id="path55-2-2-0-7-5-3"
         sodipodi:type="arc"
         sodipodi:cx="75.931129"
         sodipodi:cy="-206.12326"
         sodipodi:rx="4.4886003"
         sodipodi:ry="4.4876809"
         sodipodi:start="0"
         sodipodi:end="6.2829407"
         sodipodi:open="true"
         sodipodi:arc-type="arc"
         d="m 80.41973,-206.12326 a 4.4886003,4.4876809 0 0 1 -4.488326,4.48768 4.4886003,4.4876809 0 0 1 -4.488875,-4.48713 4.4886003,4.4876809 0 0 1 4.487777,-4.48823 4.4886003,4.4876809 0 0 1 4.489424,4.48658"
         transform="matrix(0.42813184,0.90371629,-0.90345605,0.42868073,0,0)" />
      <path
         style="fill:#e77728;fill-opacity:1;stroke:none;stroke-width:0.999944;stroke-dasharray:none;stroke-opacity:1"
         id="path55-2-2-3-5-3-0-5"
         sodipodi:type="arc"
         sodipodi:cx="77.358971"
         sodipodi:cy="-208.81677"
         sodipodi:rx="4.4886003"
         sodipodi:ry="4.4876809"
         sodipodi:start="0"
         sodipodi:end="6.2829407"
         sodipodi:open="true"
         sodipodi:arc-type="arc"
         d="m 81.847571,-208.81677 a 4.4886003,4.4876809 0 0 1 -4.488326,4.48768 4.4886003,4.4876809 0 0 1 -4.488875,-4.48713 4.4886003,4.4876809 0 0 1 4.487777,-4.48823 4.4886003,4.4876809 0 0 1 4.489424,4.48658"
         transform="matrix(0.42813184,0.90371629,-0.90345605,0.42868073,0,0)" />
      <path
         style="fill:#e77728;fill-opacity:0.333917;stroke:none;stroke-width:0.999944;stroke-dasharray:none;stroke-opacity:1"
         id="path55-2-2-3-5-3-0-5-9"
         sodipodi:type="arc"
         sodipodi:cx="97.339531"
         sodipodi:cy="-243.51938"
         sodipodi:rx="4.4886003"
         sodipodi:ry="4.4876809"
         sodipodi:start="0"
         sodipodi:end="6.2829407"
         sodipodi:open="true"
         sodipodi:arc-type="arc"
         d="m 101.82813,-243.51938 a 4.4886003,4.4876809 0 0 1 -4.488325,4.48768 4.4886003,4.4876809 0 0 1 -4.488874,-4.48713 4.4886003,4.4876809 0 0 1 4.487776,-4.48823 4.4886003,4.4876809 0 0 1 4.489423,4.48658"
         transform="matrix(0.42813184,0.90371629,-0.90345605,0.42868073,0,0)" />
      <path
         style="fill:#e77728;fill-opacity:1;stroke:none;stroke-width:0.999944;stroke-dasharray:none;stroke-opacity:1"
         id="path55-2-2-3-5-3-0-5-9-0-06"
         sodipodi:type="arc"
         sodipodi:cx="105.45164"
         sodipodi:cy="-239.6752"
         sodipodi:rx="4.4886003"
         sodipodi:ry="4.4876809"
         sodipodi:start="0"
         sodipodi:end="6.2829407"
         sodipodi:open="true"
         sodipodi:arc-type="arc"
         d="m 109.94024,-239.6752 a 4.4886003,4.4876809 0 0 1 -4.48833,4.48768 4.4886003,4.4876809 0 0 1 -4.48887,-4.48713 4.4886003,4.4876809 0 0 1 4.48777,-4.48823 4.4886003,4.4876809 0 0 1 4.48943,4.48658"
         transform="matrix(0.42813184,0.90371629,-0.90345605,0.42868073,0,0)" />
      <path
         style="fill:#ffffff;fill-opacity:0;stroke:#b4b4b4;stroke-width:1;stroke-dasharray:1, 2;stroke-dashoffset:0;stroke-opacity:0.334917"
         d="m 227.96913,-19.235048 c 10.42393,0.709482 23.6235,3.397599 29.26571,3.397599"
         id="path3"
         sodipodi:nodetypes="cc" />
      <path
         style="fill:#ffffff;fill-opacity:0;stroke:#b4b4b4;stroke-width:1;stroke-dasharray:1, 2;stroke-dashoffset:0;stroke-opacity:1"
         d="m 227.96913,-19.235048 c 10.42393,0.709482 23.83149,10.803698 29.22811,11.704194"
         id="path3-4"
         sodipodi:nodetypes="cc" />
      <path
         style="fill:#b5b5b5;fill-opacity:0.52549;stroke:#be2c48;stroke-width:0.5;stroke-dasharray:none;stroke-dashoffset:0;stroke-opacity:0.997726;marker-start:url(#marker6_reversed);marker-end:url(#Stop_F-b5b5b5_S-be2c48)"
         d="M 269.11566,-6.3050355 V -15.492995"
         id="path17" />
      <path
         style="fill:#e77728;fill-opacity:0.0980454;stroke:none;stroke-width:0.999944;stroke-dasharray:none;stroke-opacity:1"
         id="path55-2-2-3-9-5-3-3-4-0-1"
         sodipodi:type="arc"
         sodipodi:cx="-22.732193"
         sodipodi:cy="15.275006"
         sodipodi:rx="4.4886003"
         sodipodi:ry="4.4876809"
         sodipodi:start="0"
         sodipodi:end="6.2829407"
         sodipodi:open="true"
         sodipodi:arc-type="arc"
         d="m -18.243593,15.275006 a 4.4886003,4.4876809 0 0 1 -4.488326,4.487681 4.4886003,4.4876809 0 0 1 -4.488874,-4.487132 4.4886003,4.4876809 0 0 1 4.487777,-4.48823 4.4886003,4.4876809 0 0 1 4.489423,4.486584"
         transform="matrix(0.42813184,0.90371629,-0.90345605,0.42868073,0,0)" />
      <path
         style="fill:#e77728;fill-opacity:0.462382;stroke:none;stroke-width:0.999944;stroke-dasharray:none;stroke-opacity:1"
         id="path55-2-2-3-9-6-3-9-8-2"
         sodipodi:type="arc"
         sodipodi:cx="-21.247742"
         sodipodi:cy="13.198087"
         sodipodi:rx="4.4886003"
         sodipodi:ry="4.4876809"
         sodipodi:start="0"
         sodipodi:end="6.2829407"
         sodipodi:open="true"
         sodipodi:arc-type="arc"
         d="m -16.759141,13.198087 a 4.4886003,4.4876809 0 0 1 -4.488326,4.487681 4.4886003,4.4876809 0 0 1 -4.488875,-4.487132 4.4886003,4.4876809 0 0 1 4.487777,-4.4882301 4.4886003,4.4876809 0 0 1 4.489423,4.4865831"
         transform="matrix(0.42813184,0.90371629,-0.90345605,0.42868073,0,0)" />
      <path
         style="fill:#e77728;fill-opacity:0.661688;stroke:none;stroke-width:0.999944;stroke-dasharray:none;stroke-opacity:1"
         id="path55-2-2-0-7-5-3-4"
         sodipodi:type="arc"
         sodipodi:cx="-20.205215"
         sodipodi:cy="11.486493"
         sodipodi:rx="4.4886003"
         sodipodi:ry="4.4876809"
         sodipodi:start="0"
         sodipodi:end="6.2829407"
         sodipodi:open="true"
         sodipodi:arc-type="arc"
         d="m -15.716615,11.486493 a 4.4886003,4.4876809 0 0 1 -4.488326,4.487681 4.4886003,4.4876809 0 0 1 -4.488875,-4.487132 4.4886003,4.4876809 0 0 1 4.487777,-4.4882297 4.4886003,4.4876809 0 0 1 4.489424,4.4865827"
         transform="matrix(0.42813184,0.90371629,-0.90345605,0.42868073,0,0)" />
      <path
         style="fill:#e77728;fill-opacity:1;stroke:none;stroke-width:0.999944;stroke-dasharray:none;stroke-opacity:1"
         id="path55-2-2-3-5-3-0-5-7"
         sodipodi:type="arc"
         sodipodi:cx="-18.777374"
         sodipodi:cy="8.7929811"
         sodipodi:rx="4.4886003"
         sodipodi:ry="4.4876809"
         sodipodi:start="0"
         sodipodi:end="6.2829407"
         sodipodi:open="true"
         sodipodi:arc-type="arc"
         d="m -14.288774,8.7929811 a 4.4886003,4.4876809 0 0 1 -4.488326,4.4876809 4.4886003,4.4876809 0 0 1 -4.488874,-4.487132 4.4886003,4.4876809 0 0 1 4.487776,-4.4882297 4.4886003,4.4876809 0 0 1 4.489424,4.4865831"
         transform="matrix(0.42813184,0.90371629,-0.90345605,0.42868073,0,0)" />
      <path
         style="fill:#e77728;fill-opacity:1;stroke:none;stroke-width:0.999944;stroke-dasharray:none;stroke-opacity:1"
         id="path55-2-2-3-5-3-0-5-9-8"
         sodipodi:type="arc"
         sodipodi:cx="-2.4647098"
         sodipodi:cy="-27.359457"
         sodipodi:rx="4.4886003"
         sodipodi:ry="4.4876809"
         sodipodi:start="0"
         sodipodi:end="6.2829407"
         sodipodi:open="true"
         sodipodi:arc-type="arc"
         d="m 2.0238905,-27.359457 a 4.4886003,4.4876809 0 0 1 -4.4883258,4.487681 4.4886003,4.4876809 0 0 1 -4.4888747,-4.487132 4.4886003,4.4876809 0 0 1 4.4877768,-4.48823 4.4886003,4.4876809 0 0 1 4.4894236,4.486583"
         transform="matrix(0.42813184,0.90371629,-0.90345605,0.42868073,0,0)" />
      <path
         style="fill:#e77728;fill-opacity:1;stroke:none;stroke-width:0.999944;stroke-dasharray:none;stroke-opacity:1"
         id="path55-2-2-3-5-3-0-5-9-3"
         sodipodi:type="arc"
         sodipodi:cx="9.1444664"
         sodipodi:cy="-21.858072"
         sodipodi:rx="4.4886003"
         sodipodi:ry="4.4876809"
         sodipodi:start="0"
         sodipodi:end="6.2829407"
         sodipodi:open="true"
         sodipodi:arc-type="arc"
         d="m 13.633067,-21.858072 a 4.4886003,4.4876809 0 0 1 -4.4883261,4.487681 4.4886003,4.4876809 0 0 1 -4.4888747,-4.487132 4.4886003,4.4876809 0 0 1 4.4877767,-4.48823 4.4886003,4.4876809 0 0 1 4.4894241,4.486583"
         transform="matrix(0.42813184,0.90371629,-0.90345605,0.42868073,0,0)" />
      <path
         style="fill:#e77728;fill-opacity:1;stroke:none;stroke-width:0.999944;stroke-dasharray:none;stroke-opacity:1"
         id="path55-2-2-3-5-3-0-5-9-3-2"
         sodipodi:type="arc"
         sodipodi:cx="-13.95106"
         sodipodi:cy="-33.119774"
         sodipodi:rx="4.4886003"
         sodipodi:ry="4.4876809"
         sodipodi:start="0"
         sodipodi:end="6.2829407"
         sodipodi:open="true"
         sodipodi:arc-type="arc"
         d="m -9.46246,-33.119774 a 4.4886003,4.4876809 0 0 1 -4.488326,4.487681 4.4886003,4.4876809 0 0 1 -4.488875,-4.487132 4.4886003,4.4876809 0 0 1 4.487777,-4.48823 4.4886003,4.4876809 0 0 1 4.4894238,4.486583"
         transform="matrix(0.42813184,0.90371629,-0.90345605,0.42868073,0,0)" />
      <g
         id="g18"
         transform="translate(0,-2.2003904)">
        <g
           fill="#000000"
           fill-opacity="1"
           id="g5-3"
           transform="matrix(0.352778,0,0,0.352778,-25.737142,1.037112)"
           style="fill:#ffffff">
          <g
             id="use4-7"
             transform="translate(1.993,29.555)"
             style="fill:#ffffff">
            <path
               d="m 5.65625,-4.953125 c 0.421875,0.078125 1.078125,0.21875 1.234375,0.25 0.328125,0.09375 1.4375,0.484375 1.4375,1.6875 C 8.328125,-2.25 7.625,-0.25 4.765625,-0.25 4.234375,-0.25 2.375,-0.328125 1.890625,-1.6875 2.875,-1.5625 3.375,-2.328125 3.375,-2.875 c 0,-0.515625 -0.359375,-0.796875 -0.84375,-0.796875 -0.546875,0 -1.265625,0.421875 -1.265625,1.546875 0,1.453125 1.484375,2.375 3.46875,2.375 3.765625,0 4.875,-2.78125 4.875,-4.0625 0,-0.375 0,-1.0625 -0.78125,-1.859375 -0.625,-0.59375 -1.21875,-0.71875 -2.5625,-1 C 5.59375,-6.8125 4.53125,-7.03125 4.53125,-8.15625 c 0,-0.5 0.453125,-2.28125 2.796875,-2.28125 1.046875,0 2.0625,0.40625 2.3125,1.296875 -1.09375,0 -1.140625,0.9375 -1.140625,0.96875 0,0.515625 0.46875,0.65625 0.6875,0.65625 0.359375,0 1.046875,-0.265625 1.046875,-1.3125 0,-1.03125 -0.9375,-2.09375 -2.875,-2.09375 -3.25,0 -4.109375,2.546875 -4.109375,3.5625 0,1.875 1.828125,2.28125 2.40625,2.40625 z m 0,0"
               id="path8-7"
               style="fill:#ffffff" />
          </g>
        </g>
        <g
           fill="#000000"
           fill-opacity="1"
           id="g7-7"
           transform="matrix(0.17647179,0,0,0.17647179,-25.438304,9.7325303)"
           style="fill:#ffffff;stroke-width:1.99906">
          <g
             id="use6-2"
             transform="translate(22.202999,20.559999)"
             style="fill:#ffffff;stroke-width:1.99906">
            <path
               d="m 4.984375,-9.96875 h 2.28125 c 0.46875,0 0.71875,0 0.71875,-0.4375 0,-0.28125 -0.15625,-0.28125 -0.65625,-0.28125 H 5.15625 l 0.921875,-3.609375 c 0.09375,-0.34375 0.09375,-0.390625 0.09375,-0.578125 0,-0.390625 -0.328125,-0.609375 -0.640625,-0.609375 -0.203125,0 -0.765625,0.07813 -0.96875,0.859375 l -0.96875,3.9375 H 1.265625 c -0.5,0 -0.71875,0 -0.71875,0.484375 0,0.234375 0.171875,0.234375 0.640625,0.234375 h 2.203125 l -1.625,6.546875 c -0.203125,0.875 -0.28125,1.125 -0.28125,1.4375 0,1.171875 0.8125,2.234375 2.203125,2.234375 2.5,0 3.84375,-3.625 3.84375,-3.796875 0,-0.140625 -0.09375,-0.21875 -0.25,-0.21875 -0.046875,0 -0.140625,0 -0.1875,0.09375 C 7.0625,-3.640625 7.03125,-3.625 6.859375,-3.21875 6.34375,-1.984375 5.203125,-0.25 3.765625,-0.25 c -0.75,0 -0.796875,-0.625 -0.796875,-1.15625 0,-0.03125 0,-0.5 0.078125,-0.796875 z m 0,0"
               id="path10-5"
               style="fill:#ffffff;stroke-width:1.99906" />
          </g>
        </g>
      </g>
      <path
         style="fill:#ffffff;fill-opacity:0;stroke:#b4b4b4;stroke-width:1;stroke-dasharray:1, 2;stroke-dashoffset:0;stroke-opacity:1"
         d="m -9.790747,-12.829921 c 10.423925,0.709482 23.365419,-0.520726 29.007621,-0.520726"
         id="path3-9"
         sodipodi:nodetypes="cc" />
      <path
         style="fill:#ffffff;fill-opacity:0;stroke:#b4b4b4;stroke-width:1;stroke-dasharray:1, 2;stroke-dashoffset:0;stroke-opacity:1"
         d="m -9.790747,-12.829921 c 10.423925,0.709482 22.551667,-14.04925 29.253938,-14.04925"
         id="path3-2"
         sodipodi:nodetypes="cc" />
      <path
         style="fill:#ffffff;fill-opacity:0;stroke:#b4b4b4;stroke-width:1;stroke-dasharray:1, 2;stroke-dashoffset:0;stroke-opacity:1"
         d="m -9.790747,-12.829921 c 10.423925,0.709482 21.2372,12.54292 29.041929,12.54292"
         id="path3-7"
         sodipodi:nodetypes="cc" />
      <path
         style="fill:#e77728;fill-opacity:0.0980454;stroke:none;stroke-width:0.999944;stroke-dasharray:none;stroke-opacity:1"
         id="path55-2-2-3-9-5-3-3-4-0-3"
         sodipodi:type="arc"
         sodipodi:cx="28.229574"
         sodipodi:cy="-92.158653"
         sodipodi:rx="4.4886003"
         sodipodi:ry="4.4876809"
         sodipodi:start="0"
         sodipodi:end="6.2829407"
         sodipodi:open="true"
         sodipodi:arc-type="arc"
         d="m 32.718174,-92.158653 a 4.4886003,4.4876809 0 0 1 -4.488325,4.487681 4.4886003,4.4876809 0 0 1 -4.488875,-4.487132 4.4886003,4.4876809 0 0 1 4.487777,-4.48823 4.4886003,4.4876809 0 0 1 4.489423,4.486583"
         transform="matrix(0.42813184,0.90371629,-0.90345605,0.42868073,0,0)" />
      <path
         style="fill:#e77728;fill-opacity:0.462382;stroke:none;stroke-width:0.999944;stroke-dasharray:none;stroke-opacity:1"
         id="path55-2-2-3-9-6-3-9-8-8"
         sodipodi:type="arc"
         sodipodi:cx="29.714025"
         sodipodi:cy="-94.235573"
         sodipodi:rx="4.4886003"
         sodipodi:ry="4.4876809"
         sodipodi:start="0"
         sodipodi:end="6.2829407"
         sodipodi:open="true"
         sodipodi:arc-type="arc"
         d="m 34.202626,-94.235573 a 4.4886003,4.4876809 0 0 1 -4.488326,4.487681 4.4886003,4.4876809 0 0 1 -4.488875,-4.487132 4.4886003,4.4876809 0 0 1 4.487777,-4.48823 4.4886003,4.4876809 0 0 1 4.489424,4.486583"
         transform="matrix(0.42813184,0.90371629,-0.90345605,0.42868073,0,0)" />
      <path
         style="fill:#e77728;fill-opacity:0.661688;stroke:none;stroke-width:0.999944;stroke-dasharray:none;stroke-opacity:1"
         id="path55-2-2-0-7-5-3-7"
         sodipodi:type="arc"
         sodipodi:cx="30.756552"
         sodipodi:cy="-95.947159"
         sodipodi:rx="4.4886003"
         sodipodi:ry="4.4876809"
         sodipodi:start="0"
         sodipodi:end="6.2829407"
         sodipodi:open="true"
         sodipodi:arc-type="arc"
         d="m 35.245152,-95.947159 a 4.4886003,4.4876809 0 0 1 -4.488326,4.487681 4.4886003,4.4876809 0 0 1 -4.488874,-4.487132 4.4886003,4.4876809 0 0 1 4.487776,-4.48823 4.4886003,4.4876809 0 0 1 4.489424,4.486583"
         transform="matrix(0.42813184,0.90371629,-0.90345605,0.42868073,0,0)" />
      <path
         style="fill:#e77728;fill-opacity:1;stroke:none;stroke-width:0.999944;stroke-dasharray:none;stroke-opacity:1"
         id="path55-2-2-3-5-3-0-5-3"
         sodipodi:type="arc"
         sodipodi:cx="32.184395"
         sodipodi:cy="-98.640671"
         sodipodi:rx="4.4886003"
         sodipodi:ry="4.4876809"
         sodipodi:start="0"
         sodipodi:end="6.2829407"
         sodipodi:open="true"
         sodipodi:arc-type="arc"
         d="m 36.672995,-98.640671 a 4.4886003,4.4876809 0 0 1 -4.488326,4.487681 4.4886003,4.4876809 0 0 1 -4.488874,-4.487132 4.4886003,4.4876809 0 0 1 4.487776,-4.488228 4.4886003,4.4876809 0 0 1 4.489424,4.486582"
         transform="matrix(0.42813184,0.90371629,-0.90345605,0.42868073,0,0)" />
      <path
         style="fill:#e77728;fill-opacity:1;stroke:none;stroke-width:0.999944;stroke-dasharray:none;stroke-opacity:1"
         id="path55-2-2-3-5-3-0-5-9-1"
         sodipodi:type="arc"
         sodipodi:cx="48.497055"
         sodipodi:cy="-134.79311"
         sodipodi:rx="4.4886003"
         sodipodi:ry="4.4876809"
         sodipodi:start="0"
         sodipodi:end="6.2829407"
         sodipodi:open="true"
         sodipodi:arc-type="arc"
         d="m 52.985655,-134.79311 a 4.4886003,4.4876809 0 0 1 -4.488325,4.48768 4.4886003,4.4876809 0 0 1 -4.488875,-4.48713 4.4886003,4.4876809 0 0 1 4.487777,-4.48823 4.4886003,4.4876809 0 0 1 4.489423,4.48659"
         transform="matrix(0.42813184,0.90371629,-0.90345605,0.42868073,0,0)" />
      <g
         id="g16"
         transform="translate(0,-2.857118)">
        <g
           fill="#000000"
           fill-opacity="1"
           id="g7-7-2"
           transform="matrix(0.17647179,0,0,0.17647179,16.92595,10.085238)"
           style="fill:#ffffff;stroke-width:1.99906">
          <g
             id="use6-2-7"
             transform="translate(22.202999,20.559999)"
             style="fill:#ffffff;stroke-width:1.99906">
            <path
               d="m 4.984375,-9.96875 h 2.28125 c 0.46875,0 0.71875,0 0.71875,-0.4375 0,-0.28125 -0.15625,-0.28125 -0.65625,-0.28125 H 5.15625 l 0.921875,-3.609375 c 0.09375,-0.34375 0.09375,-0.390625 0.09375,-0.578125 0,-0.390625 -0.328125,-0.609375 -0.640625,-0.609375 -0.203125,0 -0.765625,0.07813 -0.96875,0.859375 l -0.96875,3.9375 H 1.265625 c -0.5,0 -0.71875,0 -0.71875,0.484375 0,0.234375 0.171875,0.234375 0.640625,0.234375 h 2.203125 l -1.625,6.546875 c -0.203125,0.875 -0.28125,1.125 -0.28125,1.4375 0,1.171875 0.8125,2.234375 2.203125,2.234375 2.5,0 3.84375,-3.625 3.84375,-3.796875 0,-0.140625 -0.09375,-0.21875 -0.25,-0.21875 -0.046875,0 -0.140625,0 -0.1875,0.09375 C 7.0625,-3.640625 7.03125,-3.625 6.859375,-3.21875 6.34375,-1.984375 5.203125,-0.25 3.765625,-0.25 c -0.75,0 -0.796875,-0.625 -0.796875,-1.15625 0,-0.03125 0,-0.5 0.078125,-0.796875 z m 0,0"
               id="path10-5-0"
               style="fill:#ffffff;stroke-width:1.99906" />
          </g>
        </g>
        <g
           fill="#000000"
           fill-opacity="1"
           id="g7-1-1"
           transform="matrix(0.352778,0,0,0.352778,16.62711,1.77388)"
           style="fill:#ffffff">
          <g
             id="use6-1-3"
             transform="translate(1.993,29.555)"
             style="fill:#ffffff">
            <path
               d="m 5.65625,-4.953125 c 0.421875,0.078125 1.078125,0.21875 1.234375,0.25 0.328125,0.09375 1.4375,0.484375 1.4375,1.6875 C 8.328125,-2.25 7.625,-0.25 4.765625,-0.25 4.234375,-0.25 2.375,-0.328125 1.890625,-1.6875 2.875,-1.5625 3.375,-2.328125 3.375,-2.875 c 0,-0.515625 -0.359375,-0.796875 -0.84375,-0.796875 -0.546875,0 -1.265625,0.421875 -1.265625,1.546875 0,1.453125 1.484375,2.375 3.46875,2.375 3.765625,0 4.875,-2.78125 4.875,-4.0625 0,-0.375 0,-1.0625 -0.78125,-1.859375 -0.625,-0.59375 -1.21875,-0.71875 -2.5625,-1 C 5.59375,-6.8125 4.53125,-7.03125 4.53125,-8.15625 c 0,-0.5 0.453125,-2.28125 2.796875,-2.28125 1.046875,0 2.0625,0.40625 2.3125,1.296875 -1.09375,0 -1.140625,0.9375 -1.140625,0.96875 0,0.515625 0.46875,0.65625 0.6875,0.65625 0.359375,0 1.046875,-0.265625 1.046875,-1.3125 0,-1.03125 -0.9375,-2.09375 -2.875,-2.09375 -3.25,0 -4.109375,2.546875 -4.109375,3.5625 0,1.875 1.828125,2.28125 2.40625,2.40625 z m 0,0"
               id="path11-1-6"
               style="fill:#ffffff" />
          </g>
        </g>
        <g
           id="g3-3"
           transform="translate(136.65661,2.47879)"
           style="fill:#ffffff">
          <g
             fill="#000000"
             fill-opacity="1"
             id="g11-03-7"
             transform="matrix(0.16259057,0,0,0.16259057,-118.98709,7.9008146)"
             style="fill:#ffffff;stroke-width:2.16973">
            <path
               d="m 40.310749,14.809999 h 6.5625 c 0.34375,0 0.765625,0 0.765625,-0.421875 0,-0.4375 -0.390625,-0.4375 -0.765625,-0.4375 h -6.5625 V 7.372499 c 0,-0.34375 0,-0.765625 -0.421875,-0.765625 -0.453125,0 -0.453125,0.390625 -0.453125,0.765625 v 6.578125 h -6.5625 c -0.34375,0 -0.765625,0 -0.765625,0.421875 0,0.4375 0.390625,0.4375 0.765625,0.4375 h 6.5625 v 6.5625 c 0,0.359375 0,0.78125 0.421875,0.78125 0.453125,0 0.453125,-0.40625 0.453125,-0.78125 z m 0,0"
               id="path14-3-5"
               style="fill:#ffffff;stroke-width:2.16973" />
            <path
               d="m 55.402504,4.731874 c 0,-0.53125 -0.03125,-0.546875 -0.375,-0.546875 -0.96875,1.15625 -2.421875,1.53125 -3.8125,1.578125 -0.07813,0 -0.203125,0 -0.21875,0.04687 -0.03125,0.0625 -0.03125,0.109375 -0.03125,0.625 0.765625,0 2.0625,-0.15625 3.046875,-0.75 v 13.0625 c 0,0.875 -0.04687,1.171875 -2.1875,1.171875 h -0.734375 v 0.64063 c 1.1875,-0.03125 2.421875,-0.04687 3.609375,-0.04687 1.203125,0 2.4375,0.01563 3.625,0.04687 v -0.640625 h -0.75 c -2.125,0 -2.171875,-0.28125 -2.171875,-1.171875 z m 0,0"
               id="path15-7-9"
               style="fill:#ffffff;stroke-width:2.16973" />
          </g>
        </g>
      </g>
      <g
         id="g13"
         transform="translate(0,-0.46815601)">
        <g
           fill="#000000"
           fill-opacity="1"
           id="g7-7-2-1"
           transform="matrix(0.17647179,0,0,0.17647179,97.040847,7.6962763)"
           style="fill:#ffffff;stroke-width:1.99906">
          <g
             id="use6-2-7-3"
             transform="translate(22.202999,20.559999)"
             style="fill:#ffffff;stroke-width:1.99906">
            <path
               d="m 4.984375,-9.96875 h 2.28125 c 0.46875,0 0.71875,0 0.71875,-0.4375 0,-0.28125 -0.15625,-0.28125 -0.65625,-0.28125 H 5.15625 l 0.921875,-3.609375 c 0.09375,-0.34375 0.09375,-0.390625 0.09375,-0.578125 0,-0.390625 -0.328125,-0.609375 -0.640625,-0.609375 -0.203125,0 -0.765625,0.07813 -0.96875,0.859375 l -0.96875,3.9375 H 1.265625 c -0.5,0 -0.71875,0 -0.71875,0.484375 0,0.234375 0.171875,0.234375 0.640625,0.234375 h 2.203125 l -1.625,6.546875 c -0.203125,0.875 -0.28125,1.125 -0.28125,1.4375 0,1.171875 0.8125,2.234375 2.203125,2.234375 2.5,0 3.84375,-3.625 3.84375,-3.796875 0,-0.140625 -0.09375,-0.21875 -0.25,-0.21875 -0.046875,0 -0.140625,0 -0.1875,0.09375 C 7.0625,-3.640625 7.03125,-3.625 6.859375,-3.21875 6.34375,-1.984375 5.203125,-0.25 3.765625,-0.25 c -0.75,0 -0.796875,-0.625 -0.796875,-1.15625 0,-0.03125 0,-0.5 0.078125,-0.796875 z m 0,0"
               id="path10-5-0-3"
               style="fill:#ffffff;stroke-width:1.99906" />
          </g>
        </g>
        <g
           fill="#000000"
           fill-opacity="1"
           id="g7-1-1-3"
           transform="matrix(0.352778,0,0,0.352778,96.742007,-0.61508201)"
           style="fill:#ffffff">
          <g
             id="use6-1-3-8"
             transform="translate(1.993,29.555)"
             style="fill:#ffffff">
            <path
               d="m 5.65625,-4.953125 c 0.421875,0.078125 1.078125,0.21875 1.234375,0.25 0.328125,0.09375 1.4375,0.484375 1.4375,1.6875 C 8.328125,-2.25 7.625,-0.25 4.765625,-0.25 4.234375,-0.25 2.375,-0.328125 1.890625,-1.6875 2.875,-1.5625 3.375,-2.328125 3.375,-2.875 c 0,-0.515625 -0.359375,-0.796875 -0.84375,-0.796875 -0.546875,0 -1.265625,0.421875 -1.265625,1.546875 0,1.453125 1.484375,2.375 3.46875,2.375 3.765625,0 4.875,-2.78125 4.875,-4.0625 0,-0.375 0,-1.0625 -0.78125,-1.859375 -0.625,-0.59375 -1.21875,-0.71875 -2.5625,-1 C 5.59375,-6.8125 4.53125,-7.03125 4.53125,-8.15625 c 0,-0.5 0.453125,-2.28125 2.796875,-2.28125 1.046875,0 2.0625,0.40625 2.3125,1.296875 -1.09375,0 -1.140625,0.9375 -1.140625,0.96875 0,0.515625 0.46875,0.65625 0.6875,0.65625 0.359375,0 1.046875,-0.265625 1.046875,-1.3125 0,-1.03125 -0.9375,-2.09375 -2.875,-2.09375 -3.25,0 -4.109375,2.546875 -4.109375,3.5625 0,1.875 1.828125,2.28125 2.40625,2.40625 z m 0,0"
               id="path11-1-6-5"
               style="fill:#ffffff" />
          </g>
        </g>
        <g
           id="g3-3-1"
           transform="translate(216.77151,0.089828)"
           style="fill:#ffffff">
          <g
             fill="#000000"
             fill-opacity="1"
             id="g11-03-7-0"
             transform="matrix(0.16259057,0,0,0.16259057,-118.98709,7.9008146)"
             style="fill:#ffffff;stroke-width:2.16973">
            <path
               d="m 40.310749,14.809999 h 6.5625 c 0.34375,0 0.765625,0 0.765625,-0.421875 0,-0.4375 -0.390625,-0.4375 -0.765625,-0.4375 h -6.5625 V 7.372499 c 0,-0.34375 0,-0.765625 -0.421875,-0.765625 -0.453125,0 -0.453125,0.390625 -0.453125,0.765625 v 6.578125 h -6.5625 c -0.34375,0 -0.765625,0 -0.765625,0.421875 0,0.4375 0.390625,0.4375 0.765625,0.4375 h 6.5625 v 6.5625 c 0,0.359375 0,0.78125 0.421875,0.78125 0.453125,0 0.453125,-0.40625 0.453125,-0.78125 z m 0,0"
               id="path14-3-5-8"
               style="fill:#ffffff;stroke-width:2.16973" />
            <path
               d="m 55.402504,4.731874 c 0,-0.53125 -0.03125,-0.546875 -0.375,-0.546875 -0.96875,1.15625 -2.421875,1.53125 -3.8125,1.578125 -0.07813,0 -0.203125,0 -0.21875,0.04687 -0.03125,0.0625 -0.03125,0.109375 -0.03125,0.625 0.765625,0 2.0625,-0.15625 3.046875,-0.75 v 13.0625 c 0,0.875 -0.04687,1.171875 -2.1875,1.171875 h -0.734375 v 0.64063 c 1.1875,-0.03125 2.421875,-0.04687 3.609375,-0.04687 1.203125,0 2.4375,0.01563 3.625,0.04687 v -0.640625 h -0.75 c -2.125,0 -2.171875,-0.28125 -2.171875,-1.171875 z m 0,0"
               id="path15-7-9-7"
               style="fill:#ffffff;stroke-width:2.16973" />
          </g>
        </g>
      </g>
      <g
         id="g12">
        <g
           fill="#000000"
           fill-opacity="1"
           id="g7-7-2-1-8"
           transform="matrix(0.17647179,0,0,0.17647179,136.98277,7.2281203)"
           style="fill:#ffffff;stroke-width:1.99906">
          <g
             id="use6-2-7-3-0"
             transform="translate(22.202999,20.559999)"
             style="fill:#ffffff;stroke-width:1.99906">
            <path
               d="m 4.984375,-9.96875 h 2.28125 c 0.46875,0 0.71875,0 0.71875,-0.4375 0,-0.28125 -0.15625,-0.28125 -0.65625,-0.28125 H 5.15625 l 0.921875,-3.609375 c 0.09375,-0.34375 0.09375,-0.390625 0.09375,-0.578125 0,-0.390625 -0.328125,-0.609375 -0.640625,-0.609375 -0.203125,0 -0.765625,0.07813 -0.96875,0.859375 l -0.96875,3.9375 H 1.265625 c -0.5,0 -0.71875,0 -0.71875,0.484375 0,0.234375 0.171875,0.234375 0.640625,0.234375 h 2.203125 l -1.625,6.546875 c -0.203125,0.875 -0.28125,1.125 -0.28125,1.4375 0,1.171875 0.8125,2.234375 2.203125,2.234375 2.5,0 3.84375,-3.625 3.84375,-3.796875 0,-0.140625 -0.09375,-0.21875 -0.25,-0.21875 -0.046875,0 -0.140625,0 -0.1875,0.09375 C 7.0625,-3.640625 7.03125,-3.625 6.859375,-3.21875 6.34375,-1.984375 5.203125,-0.25 3.765625,-0.25 c -0.75,0 -0.796875,-0.625 -0.796875,-1.15625 0,-0.03125 0,-0.5 0.078125,-0.796875 z m 0,0"
               id="path10-5-0-3-4"
               style="fill:#ffffff;stroke-width:1.99906" />
          </g>
        </g>
        <g
           fill="#000000"
           fill-opacity="1"
           id="g7-1-1-3-1"
           transform="matrix(0.352778,0,0,0.352778,136.68393,-1.083238)"
           style="fill:#ffffff">
          <g
             id="use6-1-3-8-1"
             transform="translate(1.993,29.555)"
             style="fill:#ffffff">
            <path
               d="m 5.65625,-4.953125 c 0.421875,0.078125 1.078125,0.21875 1.234375,0.25 0.328125,0.09375 1.4375,0.484375 1.4375,1.6875 C 8.328125,-2.25 7.625,-0.25 4.765625,-0.25 4.234375,-0.25 2.375,-0.328125 1.890625,-1.6875 2.875,-1.5625 3.375,-2.328125 3.375,-2.875 c 0,-0.515625 -0.359375,-0.796875 -0.84375,-0.796875 -0.546875,0 -1.265625,0.421875 -1.265625,1.546875 0,1.453125 1.484375,2.375 3.46875,2.375 3.765625,0 4.875,-2.78125 4.875,-4.0625 0,-0.375 0,-1.0625 -0.78125,-1.859375 -0.625,-0.59375 -1.21875,-0.71875 -2.5625,-1 C 5.59375,-6.8125 4.53125,-7.03125 4.53125,-8.15625 c 0,-0.5 0.453125,-2.28125 2.796875,-2.28125 1.046875,0 2.0625,0.40625 2.3125,1.296875 -1.09375,0 -1.140625,0.9375 -1.140625,0.96875 0,0.515625 0.46875,0.65625 0.6875,0.65625 0.359375,0 1.046875,-0.265625 1.046875,-1.3125 0,-1.03125 -0.9375,-2.09375 -2.875,-2.09375 -3.25,0 -4.109375,2.546875 -4.109375,3.5625 0,1.875 1.828125,2.28125 2.40625,2.40625 z m 0,0"
               id="path11-1-6-5-3"
               style="fill:#ffffff" />
          </g>
        </g>
        <g
           id="g3-3-1-5"
           transform="translate(256.71343,-0.37832802)"
           style="fill:#ffffff">
          <g
             fill="#000000"
             fill-opacity="1"
             id="g11-03-7-0-9"
             transform="matrix(0.16259057,0,0,0.16259057,-118.98709,7.9008146)"
             style="fill:#ffffff;stroke-width:2.16973">
            <path
               d="m 40.310749,14.809999 h 6.5625 c 0.34375,0 0.765625,0 0.765625,-0.421875 0,-0.4375 -0.390625,-0.4375 -0.765625,-0.4375 h -6.5625 V 7.372499 c 0,-0.34375 0,-0.765625 -0.421875,-0.765625 -0.453125,0 -0.453125,0.390625 -0.453125,0.765625 v 6.578125 h -6.5625 c -0.34375,0 -0.765625,0 -0.765625,0.421875 0,0.4375 0.390625,0.4375 0.765625,0.4375 h 6.5625 v 6.5625 c 0,0.359375 0,0.78125 0.421875,0.78125 0.453125,0 0.453125,-0.40625 0.453125,-0.78125 z m 0,0"
               id="path14-3-5-8-3"
               style="fill:#ffffff;stroke-width:2.16973" />
            <path
               d="m 55.402504,4.731874 c 0,-0.53125 -0.03125,-0.546875 -0.375,-0.546875 -0.96875,1.15625 -2.421875,1.53125 -3.8125,1.578125 -0.07813,0 -0.203125,0 -0.21875,0.04687 -0.03125,0.0625 -0.03125,0.109375 -0.03125,0.625 0.765625,0 2.0625,-0.15625 3.046875,-0.75 v 13.0625 c 0,0.875 -0.04687,1.171875 -2.1875,1.171875 h -0.734375 v 0.64063 c 1.1875,-0.03125 2.421875,-0.04687 3.609375,-0.04687 1.203125,0 2.4375,0.01563 3.625,0.04687 v -0.640625 h -0.75 c -2.125,0 -2.171875,-0.28125 -2.171875,-1.171875 z m 0,0"
               id="path15-7-9-7-4"
               style="fill:#ffffff;stroke-width:2.16973" />
          </g>
        </g>
      </g>
      <g
         id="g12-5"
         style="fill:#ffffff"
         transform="translate(75.50445)">
        <g
           fill="#000000"
           fill-opacity="1"
           id="g7-7-2-1-8-6"
           transform="matrix(0.17647179,0,0,0.17647179,136.98277,7.2281203)"
           style="fill:#ffffff;stroke-width:1.99906">
          <g
             id="use6-2-7-3-0-5"
             transform="translate(22.202999,20.559999)"
             style="fill:#ffffff;stroke-width:1.99906">
            <path
               d="m 4.984375,-9.96875 h 2.28125 c 0.46875,0 0.71875,0 0.71875,-0.4375 0,-0.28125 -0.15625,-0.28125 -0.65625,-0.28125 H 5.15625 l 0.921875,-3.609375 c 0.09375,-0.34375 0.09375,-0.390625 0.09375,-0.578125 0,-0.390625 -0.328125,-0.609375 -0.640625,-0.609375 -0.203125,0 -0.765625,0.07813 -0.96875,0.859375 l -0.96875,3.9375 H 1.265625 c -0.5,0 -0.71875,0 -0.71875,0.484375 0,0.234375 0.171875,0.234375 0.640625,0.234375 h 2.203125 l -1.625,6.546875 c -0.203125,0.875 -0.28125,1.125 -0.28125,1.4375 0,1.171875 0.8125,2.234375 2.203125,2.234375 2.5,0 3.84375,-3.625 3.84375,-3.796875 0,-0.140625 -0.09375,-0.21875 -0.25,-0.21875 -0.046875,0 -0.140625,0 -0.1875,0.09375 C 7.0625,-3.640625 7.03125,-3.625 6.859375,-3.21875 6.34375,-1.984375 5.203125,-0.25 3.765625,-0.25 c -0.75,0 -0.796875,-0.625 -0.796875,-1.15625 0,-0.03125 0,-0.5 0.078125,-0.796875 z m 0,0"
               id="path10-5-0-3-4-9"
               style="fill:#ffffff;stroke-width:1.99906" />
          </g>
        </g>
        <g
           fill="#000000"
           fill-opacity="1"
           id="g7-1-1-3-1-9"
           transform="matrix(0.352778,0,0,0.352778,136.68393,-1.083238)"
           style="fill:#ffffff">
          <g
             id="use6-1-3-8-1-0"
             transform="translate(1.993,29.555)"
             style="fill:#ffffff">
            <path
               d="m 5.65625,-4.953125 c 0.421875,0.078125 1.078125,0.21875 1.234375,0.25 0.328125,0.09375 1.4375,0.484375 1.4375,1.6875 C 8.328125,-2.25 7.625,-0.25 4.765625,-0.25 4.234375,-0.25 2.375,-0.328125 1.890625,-1.6875 2.875,-1.5625 3.375,-2.328125 3.375,-2.875 c 0,-0.515625 -0.359375,-0.796875 -0.84375,-0.796875 -0.546875,0 -1.265625,0.421875 -1.265625,1.546875 0,1.453125 1.484375,2.375 3.46875,2.375 3.765625,0 4.875,-2.78125 4.875,-4.0625 0,-0.375 0,-1.0625 -0.78125,-1.859375 -0.625,-0.59375 -1.21875,-0.71875 -2.5625,-1 C 5.59375,-6.8125 4.53125,-7.03125 4.53125,-8.15625 c 0,-0.5 0.453125,-2.28125 2.796875,-2.28125 1.046875,0 2.0625,0.40625 2.3125,1.296875 -1.09375,0 -1.140625,0.9375 -1.140625,0.96875 0,0.515625 0.46875,0.65625 0.6875,0.65625 0.359375,0 1.046875,-0.265625 1.046875,-1.3125 0,-1.03125 -0.9375,-2.09375 -2.875,-2.09375 -3.25,0 -4.109375,2.546875 -4.109375,3.5625 0,1.875 1.828125,2.28125 2.40625,2.40625 z m 0,0"
               id="path11-1-6-5-3-7"
               style="fill:#ffffff" />
          </g>
        </g>
        <g
           id="g3-3-1-5-6"
           transform="translate(256.71343,-0.37832802)"
           style="fill:#ffffff">
          <g
             fill="#000000"
             fill-opacity="1"
             id="g11-03-7-0-9-3"
             transform="matrix(0.16259057,0,0,0.16259057,-118.98709,7.9008146)"
             style="fill:#ffffff;stroke-width:2.16973">
            <path
               d="m 40.310749,14.809999 h 6.5625 c 0.34375,0 0.765625,0 0.765625,-0.421875 0,-0.4375 -0.390625,-0.4375 -0.765625,-0.4375 h -6.5625 V 7.372499 c 0,-0.34375 0,-0.765625 -0.421875,-0.765625 -0.453125,0 -0.453125,0.390625 -0.453125,0.765625 v 6.578125 h -6.5625 c -0.34375,0 -0.765625,0 -0.765625,0.421875 0,0.4375 0.390625,0.4375 0.765625,0.4375 h 6.5625 v 6.5625 c 0,0.359375 0,0.78125 0.421875,0.78125 0.453125,0 0.453125,-0.40625 0.453125,-0.78125 z m 0,0"
               id="path14-3-5-8-3-7"
               style="fill:#ffffff;stroke-width:2.16973" />
            <path
               d="m 55.402504,4.731874 c 0,-0.53125 -0.03125,-0.546875 -0.375,-0.546875 -0.96875,1.15625 -2.421875,1.53125 -3.8125,1.578125 -0.07813,0 -0.203125,0 -0.21875,0.04687 -0.03125,0.0625 -0.03125,0.109375 -0.03125,0.625 0.765625,0 2.0625,-0.15625 3.046875,-0.75 v 13.0625 c 0,0.875 -0.04687,1.171875 -2.1875,1.171875 h -0.734375 v 0.64063 c 1.1875,-0.03125 2.421875,-0.04687 3.609375,-0.04687 1.203125,0 2.4375,0.01563 3.625,0.04687 v -0.640625 h -0.75 c -2.125,0 -2.171875,-0.28125 -2.171875,-1.171875 z m 0,0"
               id="path15-7-9-7-4-6"
               style="fill:#ffffff;stroke-width:2.16973" />
          </g>
        </g>
      </g>
      <g
         id="g12-50"
         style="fill:#ffffff"
         transform="translate(119.62582)">
        <g
           fill="#000000"
           fill-opacity="1"
           id="g7-7-2-1-8-8"
           transform="matrix(0.17647179,0,0,0.17647179,136.98277,7.2281203)"
           style="fill:#ffffff;stroke-width:1.99906">
          <g
             id="use6-2-7-3-0-1"
             transform="translate(22.202999,20.559999)"
             style="fill:#ffffff;stroke-width:1.99906">
            <path
               d="m 4.984375,-9.96875 h 2.28125 c 0.46875,0 0.71875,0 0.71875,-0.4375 0,-0.28125 -0.15625,-0.28125 -0.65625,-0.28125 H 5.15625 l 0.921875,-3.609375 c 0.09375,-0.34375 0.09375,-0.390625 0.09375,-0.578125 0,-0.390625 -0.328125,-0.609375 -0.640625,-0.609375 -0.203125,0 -0.765625,0.07813 -0.96875,0.859375 l -0.96875,3.9375 H 1.265625 c -0.5,0 -0.71875,0 -0.71875,0.484375 0,0.234375 0.171875,0.234375 0.640625,0.234375 h 2.203125 l -1.625,6.546875 c -0.203125,0.875 -0.28125,1.125 -0.28125,1.4375 0,1.171875 0.8125,2.234375 2.203125,2.234375 2.5,0 3.84375,-3.625 3.84375,-3.796875 0,-0.140625 -0.09375,-0.21875 -0.25,-0.21875 -0.046875,0 -0.140625,0 -0.1875,0.09375 C 7.0625,-3.640625 7.03125,-3.625 6.859375,-3.21875 6.34375,-1.984375 5.203125,-0.25 3.765625,-0.25 c -0.75,0 -0.796875,-0.625 -0.796875,-1.15625 0,-0.03125 0,-0.5 0.078125,-0.796875 z m 0,0"
               id="path10-5-0-3-4-2"
               style="fill:#ffffff;stroke-width:1.99906" />
          </g>
        </g>
        <g
           fill="#000000"
           fill-opacity="1"
           id="g7-1-1-3-1-2"
           transform="matrix(0.352778,0,0,0.352778,136.68393,-1.083238)"
           style="fill:#ffffff">
          <g
             id="use6-1-3-8-1-6"
             transform="translate(1.993,29.555)"
             style="fill:#ffffff">
            <path
               d="m 5.65625,-4.953125 c 0.421875,0.078125 1.078125,0.21875 1.234375,0.25 0.328125,0.09375 1.4375,0.484375 1.4375,1.6875 C 8.328125,-2.25 7.625,-0.25 4.765625,-0.25 4.234375,-0.25 2.375,-0.328125 1.890625,-1.6875 2.875,-1.5625 3.375,-2.328125 3.375,-2.875 c 0,-0.515625 -0.359375,-0.796875 -0.84375,-0.796875 -0.546875,0 -1.265625,0.421875 -1.265625,1.546875 0,1.453125 1.484375,2.375 3.46875,2.375 3.765625,0 4.875,-2.78125 4.875,-4.0625 0,-0.375 0,-1.0625 -0.78125,-1.859375 -0.625,-0.59375 -1.21875,-0.71875 -2.5625,-1 C 5.59375,-6.8125 4.53125,-7.03125 4.53125,-8.15625 c 0,-0.5 0.453125,-2.28125 2.796875,-2.28125 1.046875,0 2.0625,0.40625 2.3125,1.296875 -1.09375,0 -1.140625,0.9375 -1.140625,0.96875 0,0.515625 0.46875,0.65625 0.6875,0.65625 0.359375,0 1.046875,-0.265625 1.046875,-1.3125 0,-1.03125 -0.9375,-2.09375 -2.875,-2.09375 -3.25,0 -4.109375,2.546875 -4.109375,3.5625 0,1.875 1.828125,2.28125 2.40625,2.40625 z m 0,0"
               id="path11-1-6-5-3-9"
               style="fill:#ffffff" />
          </g>
        </g>
        <g
           id="g3-3-1-5-1"
           transform="translate(256.71343,-0.37832802)"
           style="fill:#ffffff">
          <g
             fill="#000000"
             fill-opacity="1"
             id="g11-03-7-0-9-0"
             transform="matrix(0.16259057,0,0,0.16259057,-118.98709,7.9008146)"
             style="fill:#ffffff;stroke-width:2.16973">
            <path
               d="m 40.310749,14.809999 h 6.5625 c 0.34375,0 0.765625,0 0.765625,-0.421875 0,-0.4375 -0.390625,-0.4375 -0.765625,-0.4375 h -6.5625 V 7.372499 c 0,-0.34375 0,-0.765625 -0.421875,-0.765625 -0.453125,0 -0.453125,0.390625 -0.453125,0.765625 v 6.578125 h -6.5625 c -0.34375,0 -0.765625,0 -0.765625,0.421875 0,0.4375 0.390625,0.4375 0.765625,0.4375 h 6.5625 v 6.5625 c 0,0.359375 0,0.78125 0.421875,0.78125 0.453125,0 0.453125,-0.40625 0.453125,-0.78125 z m 0,0"
               id="path14-3-5-8-3-4"
               style="fill:#ffffff;stroke-width:2.16973" />
            <path
               d="m 55.402504,4.731874 c 0,-0.53125 -0.03125,-0.546875 -0.375,-0.546875 -0.96875,1.15625 -2.421875,1.53125 -3.8125,1.578125 -0.07813,0 -0.203125,0 -0.21875,0.04687 -0.03125,0.0625 -0.03125,0.109375 -0.03125,0.625 0.765625,0 2.0625,-0.15625 3.046875,-0.75 v 13.0625 c 0,0.875 -0.04687,1.171875 -2.1875,1.171875 h -0.734375 v 0.64063 c 1.1875,-0.03125 2.421875,-0.04687 3.609375,-0.04687 1.203125,0 2.4375,0.01563 3.625,0.04687 v -0.640625 h -0.75 c -2.125,0 -2.171875,-0.28125 -2.171875,-1.171875 z m 0,0"
               id="path15-7-9-7-4-2"
               style="fill:#ffffff;stroke-width:2.16973" />
          </g>
        </g>
      </g>
      <path
         style="fill:#ffffff;fill-opacity:0;stroke:#b4b4b4;stroke-width:1;stroke-dasharray:1, 2;stroke-dashoffset:0;stroke-opacity:1"
         d="m 109.08919,-12.82968 c 10.42392,0.709482 23.36541,-0.520726 29.00762,-0.520726"
         id="path3-91"
         sodipodi:nodetypes="cc" />
      <path
         style="fill:#e77728;fill-opacity:1;stroke:none;stroke-width:0.999944;stroke-dasharray:none;stroke-opacity:1"
         id="path55-2-2-3-5-3-0-5-9-2"
         sodipodi:type="arc"
         sodipodi:cx="48.497055"
         sodipodi:cy="-134.7942"
         sodipodi:rx="4.4886003"
         sodipodi:ry="4.4876809"
         sodipodi:start="0"
         sodipodi:end="6.2829407"
         sodipodi:open="true"
         sodipodi:arc-type="arc"
         d="m 52.985655,-134.7942 a 4.4886003,4.4876809 0 0 1 -4.488325,4.48768 4.4886003,4.4876809 0 0 1 -4.488875,-4.48714 4.4886003,4.4876809 0 0 1 4.487777,-4.48823 4.4886003,4.4876809 0 0 1 4.489423,4.48659"
         transform="matrix(0.42813184,0.90371629,-0.90345605,0.42868073,0,0)" />
      <path
         style="fill:#e77728;fill-opacity:0.539461;stroke:none;stroke-width:1;stroke-dasharray:none;stroke-opacity:1"
         id="path55-2-2-3-5-3-0-5-9-3-9"
         sodipodi:type="arc"
         sodipodi:cx="60.106232"
         sodipodi:cy="-129.29285"
         sodipodi:rx="4.4886003"
         sodipodi:ry="4.4876809"
         sodipodi:start="0"
         sodipodi:end="6.2829407"
         sodipodi:open="true"
         sodipodi:arc-type="arc"
         d="m 64.594832,-129.29285 a 4.4886003,4.4876809 0 0 1 -4.488326,4.48768 4.4886003,4.4876809 0 0 1 -4.488875,-4.48713 4.4886003,4.4876809 0 0 1 4.487777,-4.48823 4.4886003,4.4876809 0 0 1 4.489424,4.48659"
         transform="matrix(0.42813184,0.90371629,-0.90345605,0.42868073,0,0)" />
      <path
         style="fill:#e77728;fill-opacity:0.534219;stroke:none;stroke-width:0.999944;stroke-dasharray:none;stroke-opacity:1"
         id="path55-2-2-3-5-3-0-5-9-3-2-1"
         sodipodi:type="arc"
         sodipodi:cx="37.010704"
         sodipodi:cy="-140.55453"
         sodipodi:rx="4.4886003"
         sodipodi:ry="4.4876809"
         sodipodi:start="0"
         sodipodi:end="6.2829407"
         sodipodi:open="true"
         sodipodi:arc-type="arc"
         d="m 41.499304,-140.55453 a 4.4886003,4.4876809 0 0 1 -4.488325,4.48768 4.4886003,4.4876809 0 0 1 -4.488875,-4.48714 4.4886003,4.4876809 0 0 1 4.487777,-4.48823 4.4886003,4.4876809 0 0 1 4.489423,4.48659"
         transform="matrix(0.42813184,0.90371629,-0.90345605,0.42868073,0,0)" />
      <path
         d="m 143.69033,-26.778369 2.51541,2.51541 -0.89745,0.89745 -2.51541,-2.51541 -2.60389,2.6039 -0.9101,-0.9101 2.60389,-2.60389 -2.51541,-2.51541 0.89746,-0.89745 2.5154,2.5154 2.61653,-2.61652 0.9101,0.91009 z"
         id="text1"
         style="font-size:17.876px;line-height:0.95;font-family:Sans;-inkscape-font-specification:'Sans, Normal';text-align:center;text-anchor:middle;fill:#000000;stroke-width:1.99999"
         aria-label="+" />
      <path
         d="m 143.40381,-1.07889 2.51541,2.51541 -0.89746,0.89746 -2.51541,-2.51541 -2.60389,2.60389 -0.91009,-0.9101 2.60389,-2.60389 -2.51541,-2.515405 0.89746,-0.897457 2.5154,2.515408 2.61653,-2.61653 0.9101,0.910097 z"
         id="text1-6"
         style="font-size:17.876px;line-height:0.95;font-family:Sans;-inkscape-font-specification:'Sans, Normal';text-align:center;text-anchor:middle;fill:#000000;stroke-width:1.99999"
         aria-label="+" />
      <path
         style="font-size:10.5833px;line-height:0.7;font-family:'Yale 2024';-inkscape-font-specification:'Yale 2024, Normal';text-align:center;text-anchor:middle;stroke-linecap:round"
         d="m -15.872079,-39.295483 c -0.486832,-0.02117 -1.079497,-0.169332 -1.18533,-0.370415 v -5.746732 l 0.211666,-0.359832 v -0.148166 h -0.179916 l -2.11666,0.709081 v 0.232832 c 0.804331,0 1.164163,0.01058 1.164163,0.476249 v 4.836568 c -0.105833,0.201083 -0.698498,0.349249 -1.185329,0.370415 v 0.243416 h 3.291406 z m 3.238489,-0.296332 c 0,-0.349249 -0.285749,-0.645581 -0.656164,-0.645581 -0.349249,0 -0.634998,0.296332 -0.634998,0.645581 0,0.349249 0.285749,0.656164 0.634998,0.656164 0.370415,0 0.656164,-0.306915 0.656164,-0.656164 z m 10.900785,-6.180647 h -2.7939911 v 0.232833 c 0.497415,0.02117 1.0689132,0.253999 1.1747462,0.465665 0.010583,0.328082 0.052916,1.248829 0.052916,1.830911 v 1.375828 c 0,1.523996 -0.6667479,2.33891 -2.0108269,2.33891 -1.269996,0 -1.9790771,-0.783164 -1.9790771,-2.127244 v -3.503072 c 0.105833,-0.211666 0.529165,-0.359832 1.0159968,-0.380998 v -0.232833 h -2.9633239 v 0.232833 c 0.4762485,0.02117 0.8784139,0.169332 0.9842469,0.380998 v 3.661822 c 0,1.661578 1.0159967,2.614075 2.6987414,2.614075 1.6404114,0 2.8363243,-0.857247 2.8363243,-2.804574 v -3.386656 c 0.105833,-0.211666 0.5079984,-0.444499 0.9842469,-0.465665 z m 5.2598945,4.222736 c 0,-1.502828 -0.9207471,-2.180159 -1.8838273,-2.180159 -0.4974151,0 -1.12182978,0.338665 -1.58749496,0.677331 v -0.740831 h -0.1269996 l -1.35466234,0.529165 v 0.201083 c 0.50799837,0.126999 0.64558127,0.328082 0.64558127,0.571498 v 5.566815 c -0.0846664,0.1905 -0.39158207,0.28575 -0.91016377,0.328083 v 0.264582 h 2.7834078 v -0.275166 c -0.50799838,-0.05292 -0.81491407,-0.08467 -1.01599676,-0.211666 l -0.0317499,-2.317742 c 0.19049939,0.05292 0.45508188,0.179916 0.74083097,0.179916 1.74624449,0 2.74107459,-1.09008 2.74107459,-2.592909 z m -0.8995805,0.317499 c 0,0.994831 -0.5397482,1.904994 -1.3652456,1.904994 -0.42333199,0 -1.02658007,-0.328082 -1.19591286,-0.96308 v -2.571742 c 0.27516579,-0.137583 0.65616457,-0.285749 0.93133036,-0.285749 1.0159968,0 1.6298281,0.899581 1.6298281,1.915577 z m 6.9003114,1.534579 -0.8572473,0.137583 c -0.03175,-0.05292 -0.1587495,-0.1905 -0.1587495,-0.423332 l -0.021167,-6.053648 0.2010827,-0.359832 v -0.148166 H 8.5224069 l -1.7356611,0.476249 v 0.201082 c 0.7302476,0.0635 0.8784138,0.15875 0.8889971,0.592665 l 0.03175,1.682745 c -0.2010826,-0.05292 -0.5079983,-0.148167 -0.8043307,-0.148167 -1.7250779,0 -2.7093247,1.142997 -2.7093247,2.592909 0,1.492245 0.9313303,2.190743 1.8838273,2.190743 0.4974151,0 1.1324131,-0.359832 1.6086615,-0.709081 l 0.09525,0.772581 h 0.1375829 l 1.6086616,-0.539749 z m -1.8414942,-0.169333 c -0.2963323,0.15875 -0.6984977,0.317499 -0.9630802,0.317499 -1.0265801,0 -1.6192449,-0.878414 -1.6192449,-1.915577 0,-0.984247 0.4974151,-1.904994 1.3017459,-1.904994 0.423332,0 1.0794966,0.306916 1.2699959,0.89958 z m 6.4769738,0.04233 c -0.243416,0.169333 -0.380999,0.264583 -0.613831,0.264583 -0.222249,0 -0.455082,-0.137583 -0.444499,-0.571498 l 0.04233,-2.285993 c 0.01058,-0.814914 -0.306916,-1.322913 -1.269996,-1.322913 -0.465666,0 -1.598079,0.444499 -1.8944111,1.333496 v 0.116417 l 0.8572471,-0.15875 c 0.02117,-0.518582 0.275166,-0.888997 0.571498,-0.888997 0.486832,0 0.888998,0.529165 0.878414,1.015997 l -0.01058,0.740831 -2.190743,0.77258 c -0.1693329,0.243416 -0.2116661,0.603249 -0.2116661,0.888998 0,0.613831 0.5397481,0.96308 1.0583301,0.96308 0.391582,0 0.973663,-0.296332 1.344079,-0.677331 0.01058,0.243416 0.232833,0.677331 0.772581,0.677331 0.338665,0 0.857247,-0.328082 1.111246,-0.592665 z m -1.89441,-0.01058 c -0.328083,0.232833 -0.529165,0.338666 -0.952497,0.338666 -0.317499,0 -0.497415,-0.296333 -0.497415,-0.613832 0,-0.211666 0.03175,-0.444498 0.07408,-0.613831 0.306915,-0.169333 1.111246,-0.476249 1.386412,-0.603248 z m 5.101156,0.137583 c -0.105833,0.04233 -0.455082,0.190499 -0.698498,0.190499 -0.624415,0 -0.99483,-0.370415 -0.99483,-0.96308 0,-0.941914 0.02117,-1.545162 0.04233,-2.614075 l 1.566329,0.01058 v -0.497415 h -1.576912 l 0.01058,-0.984247 h -0.137583 l -1.259412,1.24883 v 0.222249 l 0.582081,-0.01058 c -0.02117,1.005413 -0.08467,1.756827 -0.08467,2.762241 0,0.846664 0.285749,1.365246 1.248829,1.365246 0.380999,0 1.02658,-0.296333 1.301746,-0.518582 z m 4.063987,-0.455082 c -0.455082,0.391582 -0.677332,0.571498 -1.28058,0.571498 -0.878414,0 -1.619245,-0.740831 -1.619245,-1.852077 0,-0.243416 0.01058,-0.476249 0.02117,-0.571498 l 2.889241,0.02117 v -0.179916 c 0,-1.005413 -0.497415,-1.566328 -1.566329,-1.566328 -1.280579,0 -2.211909,1.047746 -2.211909,2.603491 0,1.28058 0.836081,2.158994 1.92616,2.158994 0.867831,0 1.354663,-0.349249 2.000244,-0.941914 z m -2.836325,-2.137826 c 0.116417,-0.698498 0.529165,-1.12183 1.09008,-1.12183 0.476249,0 0.899581,0.529165 0.899581,1.100663 z"
         id="text17"
         aria-label="1. Update" />
      <path
         style="font-size:10.5833px;line-height:0.7;font-family:'Yale 2024';-inkscape-font-specification:'Yale 2024, Normal';text-align:center;text-anchor:middle;stroke-linecap:round"
         d="m 99.049697,-40.904144 h -0.211666 c -0.02117,0.476248 -0.264583,0.952497 -0.486832,1.05833 h -2.98449 c 1.513411,-1.28058 3.17499,-2.296576 3.17499,-4.159237 0,-1.142996 -0.878414,-1.915577 -2.053161,-1.915577 -1.439328,0 -2.106076,1.100663 -2.307159,2.042577 l 0.222249,0.07408 c 0.243416,-0.592665 0.772581,-1.291163 1.746245,-1.291163 0.804331,0 1.386412,0.486832 1.386412,1.365246 0,1.291162 -0.836081,2.571742 -3.492489,4.497902 l 0.07408,0.179916 h 4.931818 z m 2.539993,1.312329 c 0,-0.349249 -0.28575,-0.645581 -0.65617,-0.645581 -0.34924,0 -0.63499,0.296332 -0.63499,0.645581 0,0.349249 0.28575,0.656164 0.63499,0.656164 0.37042,0 0.65617,-0.306915 0.65617,-0.656164 z m 10.99603,0.359832 c -0.27516,-0.04233 -0.85724,-0.148166 -1.01599,-0.253999 -0.11642,-0.07408 -0.56092,-0.433915 -0.94192,-0.878414 l -1.60866,-1.904994 c 0.80433,-0.359832 1.27,-1.142996 1.27,-1.809744 0,-1.18533 -0.77258,-1.725078 -2.53999,-1.725078 -1.23825,0 -1.59808,0.03175 -2.77283,0.03175 v 0.232833 c 0.48683,0.02117 0.98425,0.158749 1.09008,0.402165 v 5.35515 c -0.14817,0.349248 -0.61383,0.465665 -1.10066,0.486831 v 0.243416 h 3.21732 v -0.243416 c -0.48683,-0.02117 -1.00541,-0.190499 -1.15358,-0.539748 v -1.947327 h 1.2065 c 0.381,0.465665 0.82549,1.09008 1.64041,2.02141 0.68791,0.783164 0.68791,0.740831 1.74624,0.751414 l 0.93133,0.01058 z m -3.33374,-4.804818 c 0,1.12183 -0.32808,1.852078 -1.50282,1.852078 h -0.71967 v -3.227907 c 0.24342,-0.02117 0.48683,-0.02117 0.65617,-0.02117 1.05833,0 1.56632,0.645581 1.56632,1.396995 z m 6.82624,3.884071 c -0.45508,0.391582 -0.67733,0.571498 -1.28057,0.571498 -0.87842,0 -1.61925,-0.740831 -1.61925,-1.852077 0,-0.243416 0.0106,-0.476249 0.0212,-0.571498 l 2.88924,0.02117 v -0.179916 c 0,-1.005413 -0.49742,-1.566328 -1.56633,-1.566328 -1.28058,0 -2.21191,1.047746 -2.21191,2.603491 0,1.28058 0.83608,2.158994 1.92616,2.158994 0.86783,0 1.35466,-0.349249 2.00024,-0.941914 z m -2.83632,-2.137826 c 0.11642,-0.698498 0.52917,-1.12183 1.09008,-1.12183 0.47625,0 0.89958,0.529165 0.89958,1.100663 z m 6.76272,1.915577 c 0,-0.698498 -0.46566,-0.99483 -1.29116,-1.333496 -0.80433,-0.328082 -0.98425,-0.550332 -0.98425,-0.99483 0,-0.275166 0.127,-0.730248 0.98425,-0.730248 0.24341,0 0.66675,0.497415 0.98424,1.111247 h 0.23284 l -0.0529,-1.12183 c -0.27516,-0.127 -0.71966,-0.285749 -1.28058,-0.285749 -0.93133,0 -1.65099,0.603248 -1.65099,1.333496 0,0.730247 0.42333,1.047746 1.30174,1.407578 0.59267,0.243416 0.96308,0.476249 0.96308,0.920747 0,0.391583 -0.20108,0.804331 -1.09008,0.804331 -0.22225,0 -0.71966,-0.539748 -1.04774,-1.153579 h -0.26459 l 0.127,1.174746 c 0.26459,0.126999 0.71967,0.296332 1.50283,0.296332 0.91017,0 1.56633,-0.666748 1.56633,-1.428745 z m 5.10114,0.550331 c -0.24341,0.169333 -0.381,0.264583 -0.61383,0.264583 -0.22225,0 -0.45508,-0.137583 -0.4445,-0.571498 l 0.0423,-2.285993 c 0.0106,-0.814914 -0.30691,-1.322913 -1.26999,-1.322913 -0.46567,0 -1.59808,0.444499 -1.89441,1.333496 v 0.116417 l 0.85725,-0.15875 c 0.0212,-0.518582 0.27516,-0.888997 0.57149,-0.888997 0.48684,0 0.889,0.529165 0.87842,1.015997 l -0.0106,0.740831 -2.19074,0.77258 c -0.16933,0.243416 -0.21166,0.603249 -0.21166,0.888998 0,0.613831 0.53974,0.96308 1.05833,0.96308 0.39158,0 0.97366,-0.296332 1.34407,-0.677331 0.0106,0.243416 0.23284,0.677331 0.77259,0.677331 0.33866,0 0.85724,-0.328082 1.11124,-0.592665 z m -1.89441,-0.01058 c -0.32808,0.232833 -0.52916,0.338666 -0.9525,0.338666 -0.3175,0 -0.49741,-0.296333 -0.49741,-0.613832 0,-0.211666 0.0318,-0.444498 0.0741,-0.613831 0.30692,-0.169333 1.11125,-0.476249 1.38641,-0.603248 z m 10.3293,0.497415 c -0.40217,-0.03175 -0.65617,-0.05292 -0.86783,-0.201083 l -0.0317,-2.741074 c -0.0106,-0.878414 -0.27517,-1.449912 -1.22766,-1.449912 -0.39159,0 -1.25942,0.444498 -1.7145,0.793747 -0.15875,-0.486832 -0.51858,-0.804331 -1.18533,-0.804331 -0.381,0 -1.18533,0.391583 -1.66158,0.740831 v -0.761997 h -0.11641 l -1.32292,0.529165 v 0.169333 c 0.48684,0.158749 0.61384,0.380998 0.61384,0.603248 v 2.846907 c -0.0953,0.179916 -0.14817,0.285749 -0.66675,0.317499 v 0.243416 h 2.16957 v -0.243416 c -0.52916,-0.05292 -0.56091,-0.105833 -0.67733,-0.317499 v -3.164406 c 0.32809,-0.201083 0.83608,-0.370416 1.11125,-0.370416 0.635,0 0.93133,0.571498 0.93133,1.05833 v 2.476492 c -0.0741,0.179916 -0.127,0.285749 -0.635,0.317499 v 0.243416 h 2.159 v -0.243416 c -0.51859,-0.05292 -0.55034,-0.105833 -0.67734,-0.317499 v -3.14324 c 0.32809,-0.211666 0.80433,-0.370415 1.10067,-0.370415 0.62441,0 0.94191,0.507998 0.95249,1.047747 l 0.0318,2.455325 c -0.0953,0.179916 -0.15875,0.296332 -0.65616,0.328082 v 0.253999 c 0.26458,-0.01058 0.635,-0.03175 1.03716,-0.03175 0.52917,0 1.016,0.01058 1.3335,0.02117 z m 5.29166,-2.21191 c 0,-1.502828 -0.92075,-2.180159 -1.88383,-2.180159 -0.49741,0 -1.12183,0.338665 -1.58749,0.677331 v -0.740831 h -0.127 l -1.35467,0.529165 v 0.201083 c 0.508,0.126999 0.64558,0.328082 0.64558,0.571498 v 5.566815 c -0.0847,0.1905 -0.39158,0.28575 -0.91016,0.328083 v 0.264582 h 2.78341 v -0.275166 c -0.508,-0.05292 -0.81492,-0.08467 -1.016,-0.211666 l -0.0317,-2.317742 c 0.1905,0.05292 0.45508,0.179916 0.74083,0.179916 1.74625,0 2.74108,-1.09008 2.74108,-2.592909 z m -0.89958,0.317499 c 0,0.994831 -0.53975,1.904994 -1.36525,1.904994 -0.42333,0 -1.02658,-0.328082 -1.19591,-0.96308 v -2.571742 c 0.27516,-0.137583 0.65616,-0.285749 0.93133,-0.285749 1.016,0 1.62983,0.899581 1.62983,1.915577 z m 3.78882,1.936744 c -0.52917,-0.05292 -0.65617,-0.105833 -0.762,-0.317499 v -6.424063 l 0.20108,-0.359832 v -0.148166 h -0.16933 l -1.58749,0.476249 v 0.201082 c 0.73024,0.07408 0.70908,0.22225 0.70908,0.582082 v 5.672648 c -0.0847,0.179916 -0.21167,0.285749 -0.71967,0.317499 v 0.243416 h 2.32833 z m 4.26506,-0.857247 c -0.45508,0.391582 -0.67733,0.571498 -1.28058,0.571498 -0.87841,0 -1.61924,-0.740831 -1.61924,-1.852077 0,-0.243416 0.0106,-0.476249 0.0212,-0.571498 l 2.88924,0.02117 v -0.179916 c 0,-1.005413 -0.49741,-1.566328 -1.56632,-1.566328 -1.28058,0 -2.21191,1.047746 -2.21191,2.603491 0,1.28058 0.83608,2.158994 1.92616,2.158994 0.86783,0 1.35466,-0.349249 2.00024,-0.941914 z m -2.83632,-2.137826 c 0.11641,-0.698498 0.52916,-1.12183 1.09008,-1.12183 0.47624,0 0.89958,0.529165 0.89958,1.100663 z"
         id="text17-4"
         aria-label="2. Resample" />
      <path
         style="font-size:10.5833px;line-height:0.7;font-family:'Yale 2024';-inkscape-font-specification:'Yale 2024, Normal';text-align:center;text-anchor:middle;stroke-linecap:round"
         d="m 217.08127,-41.168727 c 0,-1.206496 -1.12183,-1.682744 -1.72508,-1.788577 0.85725,-0.338666 1.32291,-0.825498 1.32291,-1.545162 0,-0.867831 -0.81491,-1.418162 -1.79916,-1.418162 -1.40758,0 -2.01083,1.164163 -2.13783,1.629828 l 0.1905,0.09525 c 0.1905,-0.275166 0.65617,-1.047747 1.56633,-1.047747 0.8255,0 1.18533,0.518582 1.18533,1.047747 0,0.613831 -0.3175,1.02658 -1.09008,1.386412 -0.14817,0.07408 -0.41275,0.190499 -1.03716,0.380999 l 0.0952,0.317499 c 0.23283,-0.08467 0.48683,-0.179916 0.77258,-0.179916 0.74083,0 1.61924,0.328082 1.61924,1.354662 0,1.015997 -0.70908,1.640411 -1.53458,1.640411 -0.46566,0 -0.83608,-0.126999 -1.13241,-0.349249 -0.35983,-0.264582 -0.635,-0.783164 -0.75141,-1.248829 h -0.21167 l 0.16933,1.513412 c 0.381,0.253999 0.99483,0.476248 1.79916,0.476248 1.47108,0 2.69875,-0.984246 2.69875,-2.264826 z m 2.79399,1.576912 c 0,-0.349249 -0.28575,-0.645581 -0.65617,-0.645581 -0.34925,0 -0.635,0.296332 -0.635,0.645581 0,0.349249 0.28575,0.656164 0.635,0.656164 0.37042,0 0.65617,-0.306915 0.65617,-0.656164 z m 10.99603,0.359832 c -0.27516,-0.04233 -0.85725,-0.148166 -1.016,-0.253999 -0.11641,-0.07408 -0.56091,-0.433915 -0.94191,-0.878414 l -1.60866,-1.904994 c 0.80433,-0.359832 1.27,-1.142996 1.27,-1.809744 0,-1.18533 -0.77259,-1.725078 -2.54,-1.725078 -1.23824,0 -1.59807,0.03175 -2.77282,0.03175 v 0.232833 c 0.48683,0.02117 0.98425,0.158749 1.09008,0.402165 v 5.35515 c -0.14817,0.349248 -0.61383,0.465665 -1.10066,0.486831 v 0.243416 h 3.21732 v -0.243416 c -0.48683,-0.02117 -1.00541,-0.190499 -1.15358,-0.539748 v -1.947327 h 1.2065 c 0.38099,0.465665 0.82549,1.09008 1.64041,2.02141 0.68791,0.783164 0.68791,0.740831 1.74624,0.751414 l 0.93133,0.01058 z m -3.33374,-4.804818 c 0,1.12183 -0.32808,1.852078 -1.50283,1.852078 h -0.71966 v -3.227907 c 0.24342,-0.02117 0.48683,-0.02117 0.65616,-0.02117 1.05833,0 1.56633,0.645581 1.56633,1.396995 z m 6.82624,3.884071 c -0.45508,0.391582 -0.67733,0.571498 -1.28058,0.571498 -0.87841,0 -1.61924,-0.740831 -1.61924,-1.852077 0,-0.243416 0.0106,-0.476249 0.0212,-0.571498 l 2.88924,0.02117 v -0.179916 c 0,-1.005413 -0.49742,-1.566328 -1.56633,-1.566328 -1.28058,0 -2.21191,1.047746 -2.21191,2.603491 0,1.28058 0.83608,2.158994 1.92616,2.158994 0.86783,0 1.35466,-0.349249 2.00024,-0.941914 z m -2.83632,-2.137826 c 0.11642,-0.698498 0.52916,-1.12183 1.09008,-1.12183 0.47625,0 0.89958,0.529165 0.89958,1.100663 z m 5.17523,-3.323157 c 0,-0.264582 -0.23283,-0.550331 -0.56091,-0.550331 -0.33867,0 -0.5715,0.285749 -0.5715,0.550331 0,0.254 0.23283,0.529165 0.5715,0.529165 0.32808,0 0.56091,-0.275165 0.56091,-0.529165 z m 0.0529,1.883828 h -0.16933 l -1.59808,0.455082 v 0.179916 c 0.66675,0.116416 0.78316,0.296332 0.78316,0.645581 v 3.555989 c 0,1.640411 -0.67733,2.222493 -1.60866,2.285992 v 0.275166 c 1.524,-0.03175 2.48708,-0.793747 2.46591,-2.487075 l -0.0423,-4.39207 0.16933,-0.380998 z m 6.19124,4.04282 -0.71967,0.127 c -0.0953,-0.04233 -0.21166,-0.201083 -0.21166,-0.423332 v -3.735905 h -0.0953 l -1.60866,0.264583 v 0.211666 c 0.73024,0.08467 0.87841,0.222249 0.87841,0.645581 v 2.751658 c -0.30692,0.158749 -0.61383,0.328082 -1.03716,0.328082 -0.62442,0 -0.98425,-0.507998 -0.98425,-1.068913 l 0.0106,-3.132657 h -0.11641 l -1.43933,0.264583 v 0.211666 c 0.51858,0.137582 0.6985,0.275165 0.6985,0.645581 v 2.190743 c 0,0.86783 0.254,1.471078 1.19591,1.471078 0.381,0 1.19591,-0.359832 1.67216,-0.698497 l 0.0635,0.719664 h 0.127 l 1.56633,-0.507998 z m 4.99532,-3.905237 h -1.91558 v 0.243416 c 0.42333,0.02117 0.68791,0.211666 0.77258,0.370415 l -1.12183,2.942157 -1.18533,-3.122073 c 0.14817,-0.08467 0.30692,-0.169333 0.67733,-0.190499 v -0.243416 h -2.29657 v 0.243416 c 0.46566,0.02117 0.69849,0.201082 0.80433,0.476248 l 1.50283,3.905238 0.40216,-0.08467 1.56633,-3.704155 c 0.11642,-0.275165 0.33866,-0.571498 0.79375,-0.592664 z m 1.88383,-2.021411 c 0,-0.264582 -0.23284,-0.550331 -0.56092,-0.550331 -0.33866,0 -0.5715,0.285749 -0.5715,0.550331 0,0.254 0.23284,0.529165 0.5715,0.529165 0.32808,0 0.56092,-0.275165 0.56092,-0.529165 z m 0.59266,6.307647 c -0.52916,-0.05292 -0.59266,-0.105833 -0.70908,-0.317499 v -4.13807 h -0.127 l -1.36525,0.497415 v 0.190499 c 0.53975,0.137583 0.67734,0.328083 0.67734,0.571499 l -0.0106,2.878657 c -0.10583,0.179916 -0.1905,0.275166 -0.70908,0.317499 v 0.253999 h 2.24366 z m 5.88432,-0.03175 c -0.47625,-0.04233 -0.68791,-0.05292 -0.89958,-0.211666 v -2.751658 c 0,-0.857247 -0.28575,-1.439329 -1.24883,-1.439329 -0.381,0 -1.18533,0.391583 -1.66158,0.740831 v -0.751414 h -0.11641 l -1.37583,0.497415 v 0.201083 c 0.49741,0.127 0.66675,0.370415 0.66675,0.582081 v 2.857491 c -0.0952,0.179916 -0.16934,0.285749 -0.68792,0.317499 v 0.243416 h 2.21191 v -0.243416 c -0.52916,-0.05292 -0.58208,-0.105833 -0.6985,-0.317499 v -3.185573 c 0.30692,-0.169333 0.78317,-0.349249 1.06892,-0.349249 0.58208,0 0.98424,0.486832 0.98424,1.05833 v 2.465909 c -0.0741,0.179916 -0.13758,0.275166 -0.64558,0.317499 v 0.253999 h 2.40241 z m 4.70957,-0.486832 c -0.24342,0.169333 -0.381,0.264583 -0.61384,0.264583 -0.22225,0 -0.45508,-0.137583 -0.44449,-0.571498 l 0.0423,-2.285993 c 0.0106,-0.814914 -0.30692,-1.322913 -1.27,-1.322913 -0.46566,0 -1.59808,0.444499 -1.89441,1.333496 v 0.116417 l 0.85725,-0.15875 c 0.0212,-0.518582 0.27517,-0.888997 0.5715,-0.888997 0.48683,0 0.88899,0.529165 0.87841,1.015997 l -0.0106,0.740831 -2.19074,0.77258 c -0.16934,0.243416 -0.21167,0.603249 -0.21167,0.888998 0,0.613831 0.53975,0.96308 1.05833,0.96308 0.39158,0 0.97366,-0.296332 1.34408,-0.677331 0.0106,0.243416 0.23283,0.677331 0.77258,0.677331 0.33866,0 0.85725,-0.328082 1.11125,-0.592665 z m -1.89442,-0.01058 c -0.32808,0.232833 -0.52916,0.338666 -0.95249,0.338666 -0.3175,0 -0.49742,-0.296333 -0.49742,-0.613832 0,-0.211666 0.0317,-0.444498 0.0741,-0.613831 0.30691,-0.169333 1.11124,-0.476249 1.38641,-0.603248 z m 5.10116,0.137583 c -0.10583,0.04233 -0.45508,0.190499 -0.6985,0.190499 -0.62441,0 -0.99483,-0.370415 -0.99483,-0.96308 0,-0.941914 0.0212,-1.545162 0.0423,-2.614075 l 1.56632,0.01058 v -0.497415 h -1.57691 l 0.0106,-0.984247 h -0.13759 l -1.25941,1.24883 v 0.222249 l 0.58208,-0.01058 c -0.0212,1.005413 -0.0847,1.756827 -0.0847,2.762241 0,0.846664 0.28574,1.365246 1.24883,1.365246 0.38099,0 1.02658,-0.296333 1.30174,-0.518582 z m 4.06399,-0.455082 c -0.45508,0.391582 -0.67733,0.571498 -1.28058,0.571498 -0.87842,0 -1.61925,-0.740831 -1.61925,-1.852077 0,-0.243416 0.0106,-0.476249 0.0212,-0.571498 l 2.88924,0.02117 v -0.179916 c 0,-1.005413 -0.49741,-1.566328 -1.56633,-1.566328 -1.28058,0 -2.21191,1.047746 -2.21191,2.603491 0,1.28058 0.83608,2.158994 1.92616,2.158994 0.86783,0 1.35467,-0.349249 2.00025,-0.941914 z m -2.83633,-2.137826 c 0.11642,-0.698498 0.52917,-1.12183 1.09008,-1.12183 0.47625,0 0.89958,0.529165 0.89958,1.100663 z"
         id="text17-4-3"
         aria-label="3. Rejuvinate" />
      <path
         style="fill:#000000;fill-opacity:0.9;stroke:#ffffff;stroke-width:0.2;stroke-linecap:round"
         d="m 257.88976,4.9956947 1.69807,-1.4786448 1.67178,1.482493"
         id="path18" />
    </g>
  </g>
</svg>
